<svg width="1920" height="811" viewBox="0 0 1920 811" fill="none" xmlns="http://www.w3.org/2000/svg">
<path opacity="0.15" d="M131.905 0.556605H175.738V1.53068L176.434 0V26.8566V118.837H209.83V117.306V114.662V110.001V103.6V100.956V96.2942V89.8931V87.2492V82.5875V76.1865V73.5426V68.881V62.4799V59.836V54.1307H209.691L275.024 24.6997L294.992 54.1307H294.714V60.0447V62.6886V69.0897V73.7513V76.3952V82.7963V87.4579V90.1018V96.5029V101.165V103.808V110.209V114.871V117.515V123.916V128.578V131.222V137.623V142.284V144.928V151.329V155.991V158.635V165.036V169.698V172.342V178.743V178.882V182.221V184.726V187.37V193.771V198.433V201.077V207.478V212.139V214.783V216.036H330.894L331.172 215.897L357.333 241.222V325.48H366.378V322.001H368.465C369.579 314.348 380.293 307.947 393.304 307.947C394.696 307.947 396.157 308.155 397.479 308.294C397.479 308.364 397.409 308.364 397.409 308.434H397.34C400.54 308.781 404.019 309.477 406.106 310.521V309.825V304.816V302.728V299.041V294.031V291.944V288.256V283.247V281.159V276.776H427.397H440.129V209.983L458.219 187.231V187.022H486.746V213.601V217.427V222.924V226.75V232.247V236.074V241.57V245.397V250.894V254.72V260.217V264.044V269.401V269.54V273.367V278.863V280.533H506.923V278.376V276.567V275.941V274.132V271.558V269.749V265.574V263.557V262.93V261.121V258.547V255.694V252.633V250.198V245.884V239.901V237.465V233.152V227.168V224.733V219.027H512.489V213.044L525.778 202.677L526.057 202.816L525.848 202.607L539.624 202.747V198.85V194.676V187.718V183.543V175.89V171.715H539.694L552.844 143.189H593.546L593.964 143.328V143.467V214.088V214.157V267.035L596.747 269.888V280.255H603.704V167.541H646.424H669.246H671.82V232.943H680.169V226.611V222.924V216.662V212.974V206.712V203.025V196.763V193.075V186.813V183.126V176.864V173.176V166.915V163.227V156.965V153.277V147.016V143.328V137.066V133.448V133.379L688.031 91.7021H701.738H705.912H734.439V91.6325L734.508 91.7021H735.065L735.135 91.5629V91.7021V109.096V140.684V200.938H756.703V199.824V198.085V195.024V190.849V189.11V186.048V181.874V180.134V177.073V172.898V171.159V168.097V163.923V162.183V158.496H756.773L799.563 139.223L812.643 158.496H812.365V162.322V164.062V168.236V171.298V173.037V176.725L819.949 180.134H820.018V183.961V185.7V189.875V192.936V194.676V198.85V201.912V203.651V207.826V210.887V212.626V216.801V219.862V221.602V222.715H841.587V162.462V130.665V113.271V113.132L841.657 113.271H842.213L842.283 113.201V113.271H870.809H874.984H888.691L896.553 154.947V155.017V158.704V164.966V168.654V174.916V178.603V184.865V188.553V194.815V198.502V204.764V208.452V214.714V218.401V224.663V228.351V234.613V238.3V244.562V248.25V254.581H904.902V189.179H907.546H930.367H973.087V301.893H980.045V291.526L982.828 288.674V235.795V235.726V165.036V164.897L983.245 164.758H1023.88L1037.03 193.284H1037.1V197.459V205.112V209.287V216.244V220.419V224.315L1050.87 224.176L1050.67 224.385L1050.94 224.246L1064.23 234.613V240.596H1069.8V246.232V248.667V254.651V258.965V261.4V267.383V271.697V274.132V277.194V280.046V282.621V284.43V285.056V286.865V291.039V292.848V295.423V297.232V297.858V299.667V301.824H1089.98V300.154V294.657V290.831V290.691V285.334V281.507V276.08V272.254V266.757V262.93V257.434V253.607V248.25V244.423V238.926V235.1V208.591H1118.5V208.8L1136.59 231.551V298.345H1149.39H1170.68V302.728V304.816V309.825V313.513V315.6V320.609V324.297V326.384V331.394V332.09C1172.77 331.046 1176.25 330.35 1179.45 330.002H1179.38C1179.38 329.933 1179.31 329.933 1179.31 329.863C1180.63 329.724 1182.1 329.515 1183.49 329.515C1196.5 329.515 1207.21 335.916 1208.33 343.57H1210.41V347.049H1240.96V350.527H1238.87V352.615H1248.61H1249.31V358.181H1248.61H1245.13V393.665H1244.44H1170.68V396.031V398.535H1149.39H1111.54H1089.98V396.448H1088.38H1085.38H1079.05H1076.06H1069.8H1069.73H1035.85H1012.05V396.1L991.873 395.961V396.448H987.977H981.645H978.653H973.087H939.69V397.144H896.553V397.353V406.885H842.283H841.587V406.189H840.543H837.552H831.22H828.228H821.897H806.103V406.885H802.485H795.458H792.118H785.091H781.751H774.724H771.384H764.357H759.695V406.815L723.515 406.606V385.316H680.378V375.784V375.575H637.24V374.879H603.843H598.277H595.286H588.954H585.058V374.392L564.88 374.531V374.879H541.085H507.201H507.132H500.87H497.878H491.547H488.555H486.955V376.967H465.386H427.536H406.246V374.462V372.096H357.542V400.205L302.576 400.484V400.553H295.132H284.347H279.198H268.414H263.265H252.481H247.332H236.548H230.773V399.162H206.769H197.168H192.575H182.974H178.382H176.573V400.553H175.877H93.0807V385.942H26.9829V384.551H-24.0168H-32.5748H-37.1669H-46.7684H-52.3346V383.855L-83.6442 384.063V384.551H-119.824H-171.589H-171.659H-181.191H-185.783H-195.384H-199.976H-202.481V388.029H-235.321H-293.07H-325.632V383.924V380.445H-438.277H-439.042V326.176H-444.608H-446V317.826H-444.608H-429.997V314.348H-432.78V309.477H-386.164V303.911H-383.033C-381.293 292.083 -364.943 282.481 -345.044 282.481C-342.887 282.481 -340.73 282.76 -338.712 282.969C-338.782 283.038 -338.782 283.108 -338.852 283.177H-338.991C-334.12 283.664 -329.111 284.777 -325.632 286.378V285.265V277.542V274.411V268.844V261.121V257.99V252.424V244.701V241.57V235.03H-293.07H-273.728V132.822L-245.897 98.1032V97.964H-202.759V138.318V144.093V152.443V158.217V166.567V172.342V180.691V186.466V194.815V200.59V208.939V214.714V222.924V223.063V228.838V237.187V239.483H-172.146V236.491V233.778V232.804V230.09V226.194V223.48V217.079V214.366V213.392V210.678V206.782V202.399V197.667V193.91V187.301V178.186V174.429V167.819V158.704V154.947V146.668H-163.101V137.484L-142.923 121.69L-142.506 121.968L-142.993 121.62L-122.05 121.829V115.845V109.444V98.7989V92.3979V80.709V74.3079H-121.842L-101.734 31.1704H-39.6021L-39.2542 31.1008V31.3095V139.153V139.223V220.002L-35.0796 224.385V239.901H-23.9473V68.046H41.1069H76.0344H79.7916V168.236H93.0112V158.217V152.651V143.05V137.484V127.882V122.316V112.714V107.148V97.5466V91.9804V82.3788V76.8127V67.2111V61.645V52.0434V46.4772V36.7365V31.1704V21.5688V16.0026L92.9417 16.1418L104.77 0.556605H125.643" fill="#94B1F4"/>
<path opacity="0.2" d="M1788.8 360.463V252.659C1788.8 252.659 1743.28 167.103 1608.58 167.103C1425.47 167.103 1225.06 197.551 1093.8 263.813V360.523H1788.8V360.463Z" fill="#0B4F8E"/>
<path d="M1750.82 207.077H1754.79V360.463H1750.82V207.077Z" fill="white"/>
<path d="M1703.85 173.735H1707.83V360.463H1703.85V173.735Z" fill="white"/>
<path d="M1656.88 161.616H1660.86V360.463H1656.88V161.616Z" fill="white"/>
<path d="M1609.91 161.616H1613.89V360.463H1609.91V161.616Z" fill="white"/>
<path d="M1562.94 161.616H1566.92V360.463H1562.94V161.616Z" fill="white"/>
<path d="M1515.97 161.616H1519.95V360.463H1515.97V161.616Z" fill="white"/>
<path d="M1469.01 161.616H1472.98V360.463H1469.01V161.616Z" fill="white"/>
<path d="M1422.04 161.616H1426.02V360.463H1422.04V161.616Z" fill="white"/>
<path d="M1375.07 176.81H1379.05V360.463H1375.07V176.81Z" fill="white"/>
<path d="M1328.1 182.598H1332.08V360.463H1328.1V182.598Z" fill="white"/>
<path d="M1281.13 191.22H1285.11V360.463H1281.13V191.22Z" fill="white"/>
<path d="M1234.16 207.077H1238.14V360.463H1234.16V207.077Z" fill="white"/>
<path d="M1187.14 216.965H1191.12V360.462H1187.14V216.965Z" fill="white"/>
<path d="M1140.17 231.978H1144.15V360.523H1140.17V231.978Z" fill="white"/>
<path d="M1086.81 254.829V360.523H1093.8V263.813C1225.06 197.611 1425.41 167.103 1608.58 167.103C1743.28 167.103 1788.8 252.658 1788.8 252.658V360.463H1797V242.65C1797 242.65 1750.45 146 1612.74 146C1425.53 146 1220.42 182.417 1086.81 254.829Z" fill="white"/>
<path d="M1658.87 183.261H1470.99V230.893H1658.87V183.261Z" fill="white"/>
<path d="M1499.51 194.054L1509.04 220.041H1504.46L1501.62 212.444H1492.28C1491.86 213.71 1491.37 214.976 1490.89 216.242C1490.41 217.508 1489.93 218.774 1489.5 220.041H1484.92L1494.45 194.054H1499.51ZM1496.98 199.541L1493.67 208.766H1500.24L1496.98 199.541Z" fill="#868FA4"/>
<path d="M1518.38 194.054V220.041H1513.92V194.054H1518.38Z" fill="#868FA4"/>
<path d="M1544.43 201.711C1544.43 202.857 1544.13 203.882 1543.53 204.907C1542.92 205.932 1542.02 206.776 1540.81 207.5C1541.42 207.68 1541.9 207.982 1542.32 208.344C1542.74 208.705 1543.05 209.127 1543.35 209.61C1543.59 210.092 1543.77 210.574 1543.89 211.117C1544.01 211.66 1544.07 212.202 1544.07 212.685V216.423C1544.07 216.905 1544.19 217.448 1544.43 218.111C1544.67 218.774 1544.97 219.377 1545.4 220.041H1540.57C1540.39 219.739 1540.21 219.438 1540.09 219.136C1539.97 218.835 1539.91 218.473 1539.85 218.171C1539.79 217.87 1539.73 217.569 1539.73 217.267C1539.73 216.966 1539.73 216.724 1539.73 216.544V212.564C1539.73 212.202 1539.67 211.78 1539.55 211.419C1539.43 211.057 1539.19 210.695 1538.95 210.394C1538.64 210.092 1538.28 209.851 1537.8 209.67C1537.32 209.489 1536.77 209.369 1536.11 209.369H1529.48V220.041H1525.08V194.054H1536.11C1537.44 194.054 1538.64 194.295 1539.67 194.717C1540.69 195.139 1541.6 195.742 1542.32 196.466C1543.05 197.189 1543.59 198.034 1543.95 198.938C1544.25 199.842 1544.43 200.747 1544.43 201.711ZM1529.36 205.691H1535.99C1536.53 205.691 1537.02 205.57 1537.5 205.389C1537.98 205.208 1538.4 204.907 1538.76 204.605C1539.13 204.244 1539.43 203.822 1539.61 203.339C1539.79 202.857 1539.91 202.314 1539.91 201.711C1539.91 201.169 1539.79 200.626 1539.61 200.144C1539.43 199.661 1539.13 199.239 1538.76 198.878C1538.4 198.516 1537.98 198.275 1537.5 198.034C1537.02 197.853 1536.47 197.732 1535.93 197.732H1529.3V205.691H1529.36Z" fill="#868FA4"/>
<path d="M1550.76 194.054H1561.01C1562.34 194.054 1563.54 194.295 1564.57 194.717C1565.59 195.2 1566.5 195.803 1567.16 196.526C1567.89 197.25 1568.43 198.094 1568.79 198.998C1569.15 199.903 1569.33 200.867 1569.33 201.772C1569.33 202.736 1569.15 203.701 1568.79 204.666C1568.43 205.63 1567.89 206.414 1567.16 207.138C1566.44 207.861 1565.59 208.464 1564.57 208.886C1563.54 209.308 1562.34 209.549 1561.01 209.549H1555.16V220.041H1550.76V194.054ZM1555.16 205.872H1560.11C1561.01 205.872 1561.8 205.751 1562.4 205.57C1563 205.329 1563.48 205.088 1563.91 204.726C1564.27 204.364 1564.57 203.942 1564.75 203.4C1564.93 202.917 1564.99 202.375 1564.99 201.772C1564.99 201.169 1564.87 200.626 1564.69 200.144C1564.51 199.661 1564.15 199.239 1563.79 198.878C1563.36 198.516 1562.88 198.275 1562.28 198.034C1561.68 197.853 1560.95 197.732 1560.17 197.732H1555.22V205.872H1555.16Z" fill="#868FA4"/>
<path d="M1597.07 207.017C1597.07 209.007 1596.83 210.876 1596.28 212.564C1595.74 214.252 1594.96 215.699 1593.93 216.905C1592.91 218.111 1591.64 219.076 1590.13 219.739C1588.63 220.402 1586.94 220.764 1585.01 220.764C1583.08 220.764 1581.39 220.402 1579.88 219.739C1578.38 219.076 1577.11 218.111 1576.15 216.905C1575.12 215.699 1574.34 214.252 1573.85 212.564C1573.31 210.876 1573.07 209.007 1573.07 207.017C1573.07 205.027 1573.31 203.158 1573.85 201.47C1574.4 199.782 1575.18 198.395 1576.15 197.189C1577.17 195.983 1578.44 195.079 1579.88 194.416C1581.39 193.753 1583.08 193.451 1585.01 193.451C1586.94 193.451 1588.63 193.753 1590.13 194.416C1591.64 195.079 1592.91 195.983 1593.93 197.189C1594.96 198.395 1595.74 199.842 1596.28 201.47C1596.77 203.158 1597.07 204.967 1597.07 207.017ZM1592.61 206.957C1592.61 205.389 1592.42 204.002 1592 202.736C1591.64 201.53 1591.1 200.505 1590.37 199.661C1589.71 198.817 1588.87 198.154 1587.96 197.732C1587.06 197.31 1586.03 197.069 1584.95 197.069C1583.86 197.069 1582.84 197.31 1581.93 197.732C1581.03 198.154 1580.19 198.817 1579.52 199.661C1578.86 200.505 1578.32 201.53 1577.89 202.736C1577.53 203.942 1577.29 205.389 1577.29 206.957C1577.29 208.524 1577.47 209.911 1577.89 211.177C1578.26 212.443 1578.8 213.468 1579.52 214.313C1580.19 215.157 1581.03 215.82 1581.93 216.302C1582.84 216.785 1583.86 216.965 1584.95 216.965C1586.03 216.965 1587 216.724 1587.96 216.302C1588.87 215.82 1589.71 215.217 1590.37 214.313C1591.04 213.468 1591.58 212.383 1592 211.177C1592.42 209.971 1592.61 208.524 1592.61 206.957Z" fill="#868FA4"/>
<path d="M1621.61 201.711C1621.61 202.857 1621.31 203.882 1620.7 204.907C1620.1 205.932 1619.19 206.776 1617.99 207.5C1618.59 207.68 1619.07 207.982 1619.5 208.344C1619.92 208.705 1620.22 209.127 1620.52 209.61C1620.76 210.092 1620.94 210.574 1621.06 211.117C1621.18 211.66 1621.24 212.202 1621.24 212.685V216.423C1621.24 216.905 1621.37 217.448 1621.61 218.111C1621.85 218.774 1622.15 219.377 1622.57 220.041H1617.75C1617.57 219.739 1617.39 219.438 1617.27 219.136C1617.14 218.835 1617.08 218.473 1617.02 218.171C1616.96 217.87 1616.9 217.569 1616.9 217.267C1616.9 216.966 1616.9 216.724 1616.9 216.544V212.564C1616.9 212.202 1616.84 211.78 1616.72 211.419C1616.6 211.057 1616.36 210.695 1616.12 210.394C1615.82 210.092 1615.46 209.851 1614.97 209.67C1614.49 209.489 1613.95 209.369 1613.29 209.369H1606.65V220.041H1602.25V194.054H1613.29C1614.61 194.054 1615.82 194.295 1616.84 194.717C1617.87 195.139 1618.77 195.742 1619.5 196.466C1620.22 197.189 1620.76 198.034 1621.12 198.938C1621.43 199.842 1621.61 200.747 1621.61 201.711ZM1606.59 205.691H1613.23C1613.77 205.691 1614.25 205.57 1614.73 205.389C1615.22 205.208 1615.64 204.907 1616 204.605C1616.36 204.244 1616.66 203.822 1616.84 203.339C1617.02 202.857 1617.14 202.314 1617.14 201.711C1617.14 201.169 1617.02 200.626 1616.84 200.144C1616.66 199.661 1616.36 199.239 1616 198.878C1615.64 198.516 1615.22 198.275 1614.73 198.034C1614.25 197.853 1613.71 197.732 1613.17 197.732H1606.53V205.691H1606.59Z" fill="#868FA4"/>
<path d="M1647.11 194.054V197.792H1638.91V220.101H1634.45V197.792H1626.25V194.054H1647.11Z" fill="#868FA4"/>
<g opacity="0.1">
<path opacity="0.1" d="M1093.8 263.813V273.038C1330.57 178.739 1496.92 189.291 1567.52 187.602C1682.38 184.889 1728.99 209.971 1788.8 258.206V252.598C1788.8 252.598 1743.28 167.042 1608.58 167.042C1425.47 167.103 1225.06 197.611 1093.8 263.813Z" fill="black"/>
</g>
<path d="M1525.14 359.317V292.151C1525.14 292.151 1502.05 238.852 1434.76 238.852C1343.17 238.852 1241.52 257.844 1177.07 299.084V359.317H1525.14Z" fill="#8BA7C8"/>
<path d="M1505.18 263.753H1507.17V359.317H1505.18V263.753Z" fill="white"/>
<path d="M1458.21 235.475H1460.2V359.317H1458.21V235.475Z" fill="white"/>
<path d="M1411.24 235.475H1413.23V359.317H1411.24V235.475Z" fill="white"/>
<path d="M1364.28 235.475H1366.27V359.317H1364.28V235.475Z" fill="white"/>
<path d="M1317.31 244.881H1319.3V359.317H1317.31V244.881Z" fill="white"/>
<path d="M1270.34 253.865H1272.33V359.317H1270.34V253.865Z" fill="white"/>
<path d="M1223.37 269.903H1225.36V359.317H1223.37V269.903Z" fill="white"/>
<path d="M1173.51 293.477V359.317H1177.01V299.084C1241.46 257.844 1343.11 238.852 1434.7 238.852C1502.05 238.852 1525.08 292.151 1525.08 292.151V359.317H1528.57V285.88C1528.57 285.88 1505.3 225.708 1436.45 225.708C1342.87 225.708 1240.31 248.378 1173.51 293.477Z" fill="white"/>
<g opacity="0.1">
<path opacity="0.1" d="M1177.07 299.084V304.812C1295.42 246.087 1378.87 252.659 1414.2 251.634C1471.6 249.945 1494.63 265.561 1525.14 295.648V292.151C1525.14 292.151 1502.05 238.852 1434.76 238.852C1343.17 238.852 1241.52 257.844 1177.07 299.084Z" fill="black"/>
</g>
<path d="M1473.68 300.657L1213.81 300.657V291.251L1473.68 291.251V300.657Z" fill="white"/>
<path opacity="0.1" d="M1270.37 359.296H1225.39V300.63H1270.37V359.296Z" fill="black"/>
<path opacity="0.1" d="M1317.34 359.296H1272.36V300.63H1317.34V359.296Z" fill="black"/>
<path opacity="0.21" d="M1364.31 359.296H1319.34V300.63H1364.31V359.296Z" fill="black"/>
<path opacity="0.1" d="M1411.29 359.296H1366.31V300.63H1411.29V359.296Z" fill="black"/>
<path opacity="0.1" d="M1458.2 359.296H1413.22V300.63H1458.2V359.296Z" fill="black"/>
<path opacity="0.1" d="M1213.78 300.712L1205.28 306.561H1465.09L1473.65 300.471L1213.78 300.712Z" fill="black"/>
<path d="M741 296.807H1109.9V307.549H741V296.807Z" fill="#F2F7FC"/>
<path d="M1041.04 307.605H1047.65V360.467H1041.04V307.605Z" fill="#F2F7FC"/>
<path d="M968.955 307.605H975.57V360.466H968.955V307.605Z" fill="#F2F7FC"/>
<path d="M896.815 307.605H903.429V360.466H896.815V307.605Z" fill="#F2F7FC"/>
<path d="M824.674 307.605H831.289V360.466H824.674V307.605Z" fill="#F2F7FC"/>
<path d="M752.59 307.605H759.205V360.466H752.59V307.605Z" fill="#F2F7FC"/>
<path d="M-37.9999 357H1949V366H-37.9999V357Z" fill="#B5C0D9"/>
<path d="M-37.9999 366H1949V929H-37.9999V366Z" fill="white"/>
</svg>
