<svg width="49" height="60" viewBox="0 0 49 60" fill="none" xmlns="http://www.w3.org/2000/svg">
<path d="M24.5 0C30.1856 0 35.6383 2.21249 39.6586 6.15076C43.6789 10.089 45.9375 15.4305 45.9375 21C45.9375 26.5695 43.6789 31.911 39.6586 35.8492C35.6383 39.7875 30.1856 42 24.5 42C18.8144 42 13.3617 39.7875 9.3414 35.8492C5.32109 31.911 3.0625 26.5695 3.0625 21C3.0625 15.4305 5.32109 10.089 9.3414 6.15076C13.3617 2.21249 18.8144 0 24.5 0ZM24.5 6C20.4389 6 16.5441 7.58035 13.6724 10.3934C10.8008 13.2064 9.1875 17.0218 9.1875 21C9.1875 24.9782 10.8008 28.7936 13.6724 31.6066C16.5441 34.4196 20.4389 36 24.5 36C26.5109 36 28.502 35.612 30.3598 34.8582C32.2176 34.1044 33.9057 32.9995 35.3276 31.6066C36.7495 30.2137 37.8774 28.5601 38.6469 26.7402C39.4164 24.9204 39.8125 22.9698 39.8125 21C39.8125 17.0218 38.1992 13.2064 35.3276 10.3934C32.4559 7.58035 28.5611 6 24.5 6ZM24.5 12C26.9367 12 29.2736 12.9482 30.9965 14.636C32.7195 16.3239 33.6875 18.6131 33.6875 21C33.6875 23.3869 32.7195 25.6761 30.9965 27.364C29.2736 29.0518 26.9367 30 24.5 30C22.0633 30 19.7264 29.0518 18.0035 27.364C16.2805 25.6761 15.3125 23.3869 15.3125 21C15.3125 18.6131 16.2805 16.3239 18.0035 14.636C19.7264 12.9482 22.0633 12 24.5 12ZM6.125 60C4.50055 60 2.94263 59.3679 1.79397 58.2426C0.64531 57.1174 0 55.5913 0 54C0 52.86 0.30625 51.81 0.888125 50.91L6.46188 41.43C11.3006 45.51 17.6094 48 24.5 48C31.3906 48 37.6994 45.51 42.5381 41.43L48.1119 50.91C48.6937 51.81 49 52.86 49 54C49 55.5913 48.3547 57.1174 47.206 58.2426C46.0574 59.3679 44.4995 60 42.875 60H6.125Z" fill="#579D45"/>
</svg>
