<svg width="70" height="51" viewBox="0 0 70 51" fill="none" xmlns="http://www.w3.org/2000/svg">
<path fill-rule="evenodd" clip-rule="evenodd" d="M58.3484 46.0869V47.9323C58.3484 49.6199 59.7212 51 61.3987 51H65.5488C67.2263 51 68.5991 49.6199 68.5991 47.9323V45.2613C69.2574 44.3746 70 42.563 70 38.9032C70 33.7045 70 25.4608 70 22.2489C70 19.4657 66.6705 17.2901 61.4649 15.7211C61.3416 15.2787 61.2183 14.8499 61.094 14.4312H68.056C70.564 14.4312 69.6291 9.72331 66.2733 9.72331H62.8531V12.4499H60.4693C56.6438 1.06276 51.664 3.05176e-05 35 3.05176e-05C18.336 3.05176e-05 13.3562 1.06276 9.5307 12.4499H7.14689V9.72331H3.72668C0.370855 9.72331 -0.56399 14.4312 1.94404 14.4312H8.90596C8.78174 14.8499 8.65842 15.2787 8.5351 15.7211C3.32953 17.2901 0 19.4657 0 22.2489C0 25.4608 0 33.7045 0 38.9032C0 42.563 0.742616 44.3746 1.40091 45.2613V47.9323C1.40091 49.6199 2.7737 51 4.45117 51H8.6013C10.2788 51 11.6516 49.6199 11.6516 47.9323V46.0869C27.2175 46.0869 42.7825 46.0869 58.3484 46.0869ZM61.5402 34.8466C58.9487 35.5444 54.0124 36.4767 50.6394 34.5829C46.8356 32.4484 52.4057 26.5965 61.1892 26.3019C64.6775 26.1869 64.838 33.959 61.5402 34.8466ZM8.45984 34.8466C11.0513 35.5444 15.9867 36.4767 19.3606 34.5829C23.1644 32.4484 17.5943 26.5965 8.80984 26.3019C5.32254 26.1869 5.16205 33.959 8.45984 34.8466ZM13.1114 16.9234H57.1443C56.71 15.2933 53.8447 4.91047 46.1547 4.88402C45.4356 4.88219 25.0096 4.88493 24.2361 4.88493C18.5509 4.88493 15.0364 9.69503 13.1114 16.9234Z" fill="#579D45"/>
</svg>
