<svg width="857" height="380" viewBox="0 0 857 380" fill="none" xmlns="http://www.w3.org/2000/svg">
<path opacity="0.5" d="M494.251 375.195C685.285 375.195 840.149 369.422 840.149 362.301C840.149 355.179 685.285 349.406 494.251 349.406C303.216 349.406 148.353 355.179 148.353 362.301C148.353 369.422 303.216 375.195 494.251 375.195Z" fill="#B5C0D9"/>
<path d="M267.141 360.536H256.507C256.211 360.536 255.99 360.315 255.99 360.019V248.904H267.658V360.019C267.621 360.315 267.4 360.536 267.141 360.536Z" fill="#868FA4"/>
<path d="M366.838 360.536H356.204C355.909 360.536 355.687 360.315 355.687 360.019V248.904H367.355V360.019C367.355 360.315 367.134 360.536 366.838 360.536Z" fill="#868FA4"/>
<path d="M366.358 286.348H256.875C256.322 286.348 255.878 285.905 255.878 285.351V217.146C255.878 216.592 256.322 216.149 256.875 216.149H363.256C365.545 216.149 367.392 217.995 367.392 220.285V285.351C367.355 285.905 366.912 286.348 366.358 286.348Z" fill="#F0B77C"/>
<path d="M266.219 172.168H183.027C182.251 172.168 181.624 172.796 181.624 173.571V236.238H267.622V173.608C267.622 172.796 266.994 172.168 266.219 172.168Z" fill="#FFE7C7"/>
<path d="M285.382 172.168H202.19C201.415 172.168 200.787 172.796 200.787 173.571V236.238H286.785V173.608C286.785 172.796 286.158 172.168 285.382 172.168Z" fill="#F0B77C"/>
<path d="M344.573 278.15H204.406C204.073 278.15 203.778 277.855 203.778 277.523V234.871C203.778 234.539 204.073 234.243 204.406 234.243H342.616C344.056 234.243 345.2 235.388 345.2 236.828V277.56C345.2 277.892 344.905 278.15 344.573 278.15Z" fill="#FFBC68"/>
<path d="M192.775 360.536H182.14C181.845 360.536 181.624 360.315 181.624 360.019V248.904H193.292V360.019C193.292 360.315 193.033 360.536 192.775 360.536Z" fill="#868FA4"/>
<path d="M292.509 360.536H281.874C281.579 360.536 281.357 360.315 281.357 360.019V248.904H292.989V360.019C292.989 360.315 292.767 360.536 292.509 360.536Z" fill="#B5C0D9"/>
<path d="M289.998 54.1838C293.69 61.0524 293.764 69.7673 290.145 76.6728C286.416 83.7999 279.105 89.1544 277.812 97.0938C276.631 104.073 290.219 105.993 286.896 112.271C274.526 135.794 198.055 120.801 217.625 103.63C229.884 92.8841 206.474 73.9402 228.665 54.2577C235.09 48.5708 239.484 40.4098 247.46 37.234C251.337 35.683 255.694 35.3138 259.756 36.2C263.892 37.0863 266.587 39.9667 270.391 41.3699C278.514 44.2503 285.493 45.8751 289.998 54.1838Z" fill="#201212"/>
<path d="M270.465 69.6565C273.086 68.5486 275.634 67.2562 277.997 65.6683C277.591 65.9268 281.025 70.0627 281.394 70.395C282.798 71.7983 284.496 73.0908 286.342 73.8662C288.853 74.9371 289.813 71.9091 290.035 69.8411C290.589 64.7082 288.632 59.169 286.97 54.4053C285.825 51.1926 282.133 51.8204 280.656 48.7185L241.885 46.7982C241.885 46.7982 244.063 83.0243 244.211 82.5812C245.503 78.6299 258.501 73.3123 259.978 72.943C263.56 72.1306 267.068 71.0597 270.465 69.6565Z" fill="#201212"/>
<path d="M276.889 120.358C276.816 126.488 271.388 131.4 264.815 131.326C258.205 131.252 252.962 126.193 253.036 120.026C253.11 113.896 258.538 108.984 265.11 109.058C271.683 109.169 276.963 114.228 276.889 120.358Z" fill="#0D1E41"/>
<path d="M357.054 303.778C355.282 274.494 353.029 243.549 350.998 239.081C347.047 230.329 271.019 208.246 271.019 208.246L230.992 204.11C230.992 204.11 322.086 227.596 326.702 247.796C328.474 255.514 328.474 255.329 328.179 276.895C328.068 283.911 330.542 294.915 333.939 306.622C336.413 315.078 339.33 323.904 342.099 331.843C347.638 331.031 353.066 329.554 358.42 327.744C358.014 320.322 357.571 312.124 357.054 303.778Z" fill="#2E4885"/>
<path d="M342.099 331.843C347.306 346.651 351.995 358.284 351.995 358.284L359.934 358.394C359.934 358.394 359.343 345.285 358.42 327.744C353.066 329.554 347.638 331.068 342.099 331.843Z" fill="#FFB896"/>
<path d="M303.476 335.093C305.211 347.981 306.762 357.656 306.762 357.656L314.036 357.767C314.036 357.767 315.772 348.424 318.172 335.019C313.261 335.388 308.35 335.241 303.476 335.093Z" fill="#FFB896"/>
<path d="M331.317 242.515C328.732 233.283 262.932 207.323 262.932 207.323L230.992 204.11C230.992 204.11 223.127 209.428 218.401 225.048C209.723 253.667 305.174 249.31 304.842 254.775C304.546 260.24 300.965 257.803 298.823 276.082C298.048 282.655 298.86 294.989 300.189 308.099C301.112 317.257 302.331 326.821 303.439 335.056C308.35 335.204 313.261 335.388 318.135 334.982C319.612 326.747 321.347 316.961 323.046 306.88C327.92 278.298 332.646 247.316 331.317 242.515Z" fill="#365DAB"/>
<path d="M269.025 110.905C269.025 110.905 277.037 114.523 285.013 136.717C292.989 158.911 291.844 159.206 296.755 163.12C301.666 167.035 323.673 173.349 323.673 173.349L321.827 182.507C321.827 182.507 296.94 181.178 287.339 174.162C277.739 167.182 263.375 127.633 262.71 121.134C262.046 114.634 262.821 107.507 269.025 110.905Z" fill="#FFA379"/>
<path d="M315.366 176.34C314.664 179.701 318.837 183.431 324.671 184.612C330.505 185.794 335.785 184.021 336.45 180.624C337.151 177.264 332.979 173.534 327.145 172.352C321.311 171.208 316.03 172.98 315.366 176.34Z" fill="#FFA379"/>
<path d="M287.931 134.095L268.914 140.631C268.914 140.631 254.772 116.333 265.554 109.095C276.89 108.098 287.931 134.095 287.931 134.095Z" fill="url(#paint0_linear_90_24777)"/>
<path d="M249.159 103.741C269.911 102.781 282.281 115.853 282.687 137.751C282.502 150.122 274.379 152.855 274.379 152.855L270.982 208.246C270.982 208.246 263.338 210.277 252.63 210.129C241.922 209.982 230.918 204.11 230.918 204.11C230.918 204.11 235.017 194.657 235.903 183.948C236.752 173.239 230.438 147.463 228.85 140.078C227.373 132.692 221.096 103.593 249.159 103.741Z" fill="url(#paint1_linear_90_24777)"/>
<path d="M247.202 83.9844L243.768 104.147C243.768 104.147 261.381 128.002 264.372 130.735C265.812 119.177 263.966 108.394 263.486 105.735C263.006 103.076 263.523 77.3744 263.523 77.3744L247.202 83.9844Z" fill="#FFBD96"/>
<path opacity="0.4" d="M246.094 90.5207L247.202 83.9845L253.996 81.2518L261.011 84.3168L263.301 86.8279L263.412 87.4926C263.375 90.5576 263.338 93.8811 263.338 96.8723C259.498 96.7615 251.596 95.8752 246.094 90.5207Z" fill="black"/>
<path d="M257.467 94.6566L261.492 95.2105C269.763 96.3553 277.406 90.5577 278.551 82.2858L282.871 51.0819L246.795 46.0967L242.771 75.2696C241.478 84.6861 248.051 93.3642 257.467 94.6566Z" fill="#FFBD96"/>
<path d="M263.59 86.5989C263.601 87.0312 265.414 88.0097 267.601 87.9505C269.788 87.8913 271.541 86.6541 271.526 86.1137C271.516 85.7354 269.788 86.5397 267.601 86.5989C265.413 86.604 263.577 86.1125 263.59 86.5989Z" fill="white"/>
<path d="M268.384 81.3146L268.292 80.9446C268.8 80.8521 269.031 80.8059 269.539 80.6672C270.416 80.4822 270.832 79.881 270.739 79.0949C270.647 78.3088 270.462 77.4302 270.278 76.5053C269.954 74.9331 269.631 73.2683 269.631 71.9273C269.631 70.8174 270.693 69.6614 272.402 69.0602C274.573 68.2741 277.298 68.9215 278.545 69.7076L278.36 70.0313C277.16 69.3377 274.619 68.6903 272.587 69.4302C270.878 70.0776 270.093 71.1411 270.093 71.9273C270.093 73.2221 270.416 74.8868 270.693 76.4591C270.878 77.3839 271.063 78.2625 271.155 79.0949C271.294 80.1122 270.693 80.8521 269.631 81.1296C269.123 81.1758 268.892 81.2221 268.384 81.3146Z" fill="#230706"/>
<path d="M255.267 70.3551L255.036 69.9389C256.652 69.0603 259.47 68.5516 260.532 68.5516C263.211 68.5516 265.012 69.6152 265.474 69.9389L265.243 70.3089C264.781 69.9852 263.072 69.0141 260.532 69.0141C259.608 69.0603 256.791 69.5227 255.267 70.3551Z" fill="#230706"/>
<path d="M262.196 72.9906C262.196 73.6843 261.78 74.2392 261.272 74.2392C260.764 74.2392 260.348 73.6843 260.348 72.9906C260.348 72.297 260.764 71.7421 261.272 71.7421C261.78 71.7421 262.196 72.297 262.196 72.9906Z" fill="#230706"/>
<path d="M260.948 72.1586C261.132 72.3898 261.179 72.7135 261.04 72.806C260.901 72.9448 260.624 72.806 260.44 72.5748C260.255 72.3436 260.209 72.0199 260.347 71.9274C260.44 71.7887 260.717 71.9274 260.948 72.1586Z" fill="white"/>
<path d="M275.405 72.9906C275.405 73.6843 274.989 74.2392 274.481 74.2392C273.973 74.2392 273.558 73.6843 273.558 72.9906C273.558 72.297 273.973 71.7421 274.481 71.7421C274.989 71.7421 275.405 72.297 275.405 72.9906Z" fill="#230706"/>
<path d="M274.157 72.1586C274.342 72.3898 274.388 72.7135 274.249 72.806C274.111 72.9448 273.834 72.806 273.649 72.5748C273.464 72.3436 273.418 72.0199 273.557 71.9274C273.695 71.7887 273.926 71.9274 274.157 72.1586Z" fill="white"/>
<path d="M257.068 73.2222V72.806C258.269 72.806 258.823 72.4823 259.331 72.1586C259.47 72.0661 259.562 72.0199 259.701 71.9274C261.64 70.8638 262.841 71.9274 263.534 72.806L263.211 73.0834C262.518 72.2511 261.548 71.4187 259.885 72.2973C259.793 72.3436 259.654 72.4361 259.562 72.4823C259.008 72.806 258.361 73.2222 257.068 73.2222Z" fill="#230706"/>
<path d="M276.605 73.222C276.236 73.222 275.866 72.8983 275.497 72.5746C275.266 72.3897 275.035 72.2047 274.85 72.1122C274.157 71.7423 273.326 72.1122 272.679 73.0833L272.31 72.8521C273.095 71.696 274.111 71.2798 275.035 71.7423C275.266 71.881 275.497 72.066 275.774 72.2509C276.051 72.4822 276.42 72.7596 276.605 72.7596V73.222Z" fill="#230706"/>
<path d="M269.209 64.228C271.757 63.5633 274.267 62.6771 276.668 61.4954C276.261 61.68 278.92 65.9267 279.178 66.296C280.286 67.7731 281.689 69.1763 283.314 70.1364C285.493 71.4289 286.748 68.7701 287.228 66.8868C288.373 62.2339 287.302 56.8794 286.342 52.2634C285.714 49.1615 282.206 49.2723 281.246 46.2442L245.724 39.5603C245.724 39.5603 243.14 73.2384 243.324 72.8322C245.023 69.361 256.507 66.259 259.091 65.9636C261.676 65.7051 265.885 65.1143 269.209 64.228Z" fill="#201212"/>
<path d="M237.047 73.8663C236.641 76.8944 238.746 79.6639 241.737 80.0702C244.765 80.4764 247.534 78.3715 247.94 75.3803C248.346 72.3522 246.242 69.5827 243.251 69.1765C240.223 68.7333 237.453 70.8382 237.047 73.8663Z" fill="#FFBD96"/>
<path d="M245.171 79.9223C244.986 81.2886 243.731 82.2118 242.365 82.0271C240.998 81.8425 240.075 80.587 240.26 79.2206C240.444 77.8543 241.7 76.9311 243.066 77.1158C244.395 77.3373 245.355 78.5929 245.171 79.9223Z" fill="#5C80FF"/>
<path d="M306.282 350.049C306.282 350.307 304.805 356.548 304.731 358.653C304.62 360.721 320.35 362.198 321.569 358.468C317.876 353.52 315.476 355.846 315.365 349.79C315.255 343.771 306.282 350.049 306.282 350.049Z" fill="#FFBD96"/>
<path d="M321.938 356.917C321.199 356.696 320.461 356.474 319.759 356.289C317.691 360.905 310.233 360.684 304.694 358.616C304.657 358.985 304.62 359.244 304.62 359.354L304.583 360.684C304.583 360.979 304.694 361.422 304.841 361.865C309.309 361.865 313.63 361.865 317.987 361.865C320.756 361.865 323.562 361.865 326.369 361.865C326.258 358.837 324.19 357.656 321.938 356.917Z" fill="url(#paint2_linear_90_24777)"/>
<path d="M317.987 361.865C313.63 361.865 309.31 361.865 304.842 361.865C305.1 362.53 305.543 363.158 306.023 363.158L317.322 363.306L323.083 363.38L326.332 363.416C326.406 362.863 326.443 362.346 326.406 361.902C323.563 361.865 320.793 361.865 317.987 361.865Z" fill="#00061E"/>
<path d="M350.001 350.049C350.001 350.307 348.524 356.548 348.45 358.653C348.339 360.721 364.069 362.198 365.288 358.468C361.595 353.52 359.195 355.846 359.084 349.79C359.01 343.771 350.001 350.049 350.001 350.049Z" fill="#FFBD96"/>
<path d="M365.656 356.917C364.918 356.696 364.179 356.474 363.478 356.289C361.41 360.905 353.951 360.684 348.413 358.616C348.376 358.985 348.339 359.244 348.339 359.354L348.302 360.684C348.302 360.979 348.413 361.422 348.56 361.865C353.028 361.865 357.348 361.865 361.705 361.865C364.475 361.865 367.281 361.865 370.087 361.865C370.014 358.837 367.946 357.656 365.656 356.917Z" fill="url(#paint3_linear_90_24777)"/>
<path d="M361.742 361.865C357.385 361.865 353.065 361.865 348.597 361.865C348.856 362.53 349.299 363.158 349.779 363.158L361.078 363.306L366.838 363.38L370.087 363.416C370.161 362.863 370.198 362.346 370.161 361.902C367.318 361.865 364.512 361.865 361.742 361.865Z" fill="#00061E"/>
<path d="M237.713 112.124C237.713 112.124 245.098 116.924 249.603 140.041C254.144 163.158 259.794 168.143 264.04 172.759C268.287 177.375 300.928 193.18 300.928 193.18L296.386 203.003C296.386 203.003 256.175 184.945 247.756 176.562C239.337 168.217 229.626 127.818 229.922 121.282C230.254 114.782 232.1 107.84 237.713 112.124Z" fill="#FFB896"/>
<path d="M290.921 195.949C289.74 199.199 293.284 203.483 298.86 205.514C304.436 207.545 309.938 206.585 311.119 203.372C312.301 200.122 308.756 195.839 303.18 193.808C297.605 191.777 292.103 192.737 290.921 195.949Z" fill="#FFB896"/>
<path d="M252.888 137.899L233.096 141.518C233.096 141.518 222.794 115.373 234.5 109.834C245.909 110.535 252.888 137.899 252.888 137.899Z" fill="url(#paint4_linear_90_24777)"/>
<path d="M259.018 216.149H184.872C183.026 216.149 181.512 217.663 181.512 219.509V283.025C181.512 284.871 183.026 286.385 184.872 286.385H284.828C289.333 286.385 292.989 282.729 292.989 278.224V250.159C292.989 231.363 277.775 216.149 259.018 216.149Z" fill="#FFE7C7"/>
<path d="M259.904 216.149H189.525C185.832 216.149 182.731 218.66 181.808 222.094H248.014C266.292 222.094 281.136 236.902 281.136 255.218V284.244C281.136 284.982 280.988 285.684 280.84 286.348H284.976C289.407 286.348 293.025 282.766 293.025 278.298V249.236C292.989 230.957 278.182 216.149 259.904 216.149Z" fill="#B5C0D9"/>
<path d="M639.161 360.536H649.795C650.09 360.536 650.312 360.315 650.312 360.019V248.904H638.644V360.019C638.68 360.315 638.902 360.536 639.161 360.536Z" fill="#858585"/>
<path d="M539.463 360.536H550.098C550.393 360.536 550.615 360.315 550.615 360.019V248.904H538.946V360.019C538.946 360.315 539.168 360.536 539.463 360.536Z" fill="#858585"/>
<path d="M539.943 286.348H649.425C649.979 286.348 650.422 285.905 650.422 285.351V217.146C650.422 216.592 649.979 216.149 649.425 216.149H543.045C540.755 216.149 538.909 217.995 538.909 220.285V285.351C538.946 285.905 539.389 286.348 539.943 286.348Z" fill="#FF9F58"/>
<path d="M640.083 172.168H723.275C724.051 172.168 724.678 172.796 724.678 173.571V236.238H638.68V173.608C638.68 172.796 639.308 172.168 640.083 172.168Z" fill="#FF9F58"/>
<path d="M620.919 172.168H704.111C704.887 172.168 705.514 172.796 705.514 173.571V236.238H619.516V173.608C619.516 172.796 620.144 172.168 620.919 172.168Z" fill="#FF7D3C"/>
<path d="M561.729 278.151H701.859C702.191 278.151 702.486 277.855 702.486 277.523V234.871C702.486 234.539 702.191 234.243 701.859 234.243H563.649C562.209 234.243 561.064 235.388 561.064 236.828V277.56C561.101 277.892 561.396 278.151 561.729 278.151Z" fill="#FF7D3C"/>
<path d="M713.527 360.536H724.161C724.457 360.536 724.678 360.315 724.678 360.019V248.904H713.01V360.019C713.047 360.315 713.269 360.536 713.527 360.536Z" fill="#A7A7A7"/>
<path d="M613.83 360.536H624.464C624.76 360.536 624.981 360.315 624.981 360.019V248.904H613.313V360.019C613.313 360.315 613.535 360.536 613.83 360.536Z" fill="#D4D4D4"/>
<path d="M562.467 347.021L560.436 360.684L546.109 361.385L547.845 347.021H562.467Z" fill="#FF9E7A"/>
<path d="M561.322 358.062C560.694 357.767 555.119 355.699 547.66 356.253C540.164 356.807 530.305 357.582 529.493 358.727C528.681 359.872 528.865 361.681 528.865 361.681C528.865 361.681 559.624 364.155 560.953 363.601C562.245 363.01 561.322 358.062 561.322 358.062Z" fill="#0F2748"/>
<path d="M615.343 210.462L606.445 216.813C606.445 216.813 556.448 224.568 551.833 235.462C548.177 244.029 548.177 339.857 547.438 347.021L563.242 348.793C563.242 348.793 566.344 338.269 567.821 333.542C573.729 314.598 586.468 273.239 577.569 257.175C577.569 257.175 637.868 226.489 637.388 209.613L615.343 210.462Z" fill="#2E4885"/>
<path d="M599.983 348.239L598.727 361.976L586.357 362.382L585.36 349.089L599.983 348.239Z" fill="#FF9E7A"/>
<path d="M599.023 359.391C598.395 359.17 592.93 357.471 585.767 358.431C578.603 359.391 569.151 360.684 568.449 361.829C567.748 362.973 568.006 364.672 568.006 364.672C568.006 364.672 597.694 365.3 598.949 364.709C600.205 364.118 599.023 359.391 599.023 359.391Z" fill="#0F2748"/>
<path d="M678.338 222.759C679.704 230.329 679.925 249.014 669.882 251.599H615.455L600.758 252.153C600.758 252.153 609.99 278.667 607.663 304.628C607.073 311.422 603.417 327.375 602.42 335.868C601.423 344.362 600.537 349.162 600.537 349.162H584.438C584.438 349.162 568.228 256.548 570.628 241.961C573.028 227.375 606.482 227.338 614.162 223.682C621.843 220.026 623.061 209.908 623.061 209.908L677.784 212.567C677.895 216.186 677.931 220.359 678.338 222.759Z" fill="#365DAB"/>
<path d="M574.024 166.407C574.024 166.407 542.121 178.076 531.745 176.858C518.969 175.344 524.065 191.001 533.111 192.109C542.121 193.217 570.553 189.819 582.665 184.022L574.024 166.407Z" fill="#FFBCAE"/>
<path d="M545.37 179.221C547.955 185.24 545.038 192.146 538.835 194.657C532.631 197.168 525.468 194.325 522.883 188.305C520.298 182.286 523.215 175.381 529.419 172.87C535.622 170.359 542.786 173.202 545.37 179.221Z" fill="#FFBCAE"/>
<path d="M564.535 190.706C564.535 190.706 608.144 179.96 612.131 172.353C618.926 159.465 641.708 84.5754 633.696 85.4248C621.436 86.7172 606.962 93.2904 604.193 116.629C603.454 122.759 600.02 132.803 598.838 136.68C594.703 150.381 596.18 144.324 594.075 154.369L558.479 171.614L564.535 190.706Z" fill="url(#paint5_linear_90_24777)"/>
<path d="M558.59 167.847C557.224 168.18 556.375 169.546 556.744 170.875L561.913 190.226C562.283 191.555 563.686 192.367 565.052 192.035C566.418 191.703 567.267 190.336 566.898 189.007L561.729 169.657C561.359 168.327 559.956 167.515 558.59 167.847Z" fill="white"/>
<path d="M641.376 83.6893C641.376 83.6893 673.463 83.4308 678.744 93.1428C683.544 101.932 681.181 136.533 679.298 151.932C677.451 167.331 677.894 205.625 677.894 205.625L615.344 204.701C615.344 204.701 610.839 116.444 615.159 100.971C619.442 85.4987 631.664 84.7602 641.376 83.6893Z" fill="url(#paint6_linear_90_24777)"/>
<path d="M615.344 210.462L677.784 212.493L677.895 205.625L615.344 204.554V210.462Z" fill="#10559B"/>
<path d="M620.403 211.718C619.701 211.016 619.369 210.093 619.369 209.133L619.443 205.994C619.48 204.48 620.772 203.261 622.323 203.298L634.102 203.52C635.099 203.557 635.985 203.926 636.687 204.627C637.389 205.329 637.721 206.252 637.721 207.212L637.647 209.502C637.573 211.496 635.875 213.047 633.844 213.01L622.914 212.789C621.991 212.789 621.068 212.382 620.403 211.718ZM622.36 204.517C621.511 204.517 620.772 205.181 620.735 206.031L620.662 209.17C620.625 209.797 620.883 210.425 621.326 210.868C621.769 211.311 622.36 211.57 623.025 211.57L633.955 211.791C635.284 211.828 636.428 210.757 636.465 209.465L636.539 207.175C636.539 206.548 636.318 205.92 635.875 205.477C635.431 205.034 634.841 204.775 634.176 204.775L622.36 204.517Z" fill="#FFD100"/>
<path d="M627.825 208.837L637.019 209.022C637.352 209.022 637.647 208.763 637.647 208.431C637.647 208.099 637.389 207.803 637.019 207.803L627.825 207.619C627.493 207.619 627.197 207.877 627.197 208.209C627.197 208.542 627.456 208.837 627.825 208.837Z" fill="#FFD100"/>
<path d="M630.667 92.6627C630.667 92.6627 631.997 110.683 638.643 116.592C638.643 116.592 656.736 95.6169 656.663 89.0807C656.7 89.0807 640.526 96.097 630.667 92.6627Z" fill="white"/>
<path d="M632.108 86.4588C632.108 86.4588 635.653 74.4573 633.474 66.1116C631.296 57.7659 655.186 58.2829 655.444 65.1884C655.74 72.7586 655.149 77.8915 656.331 85.2032C656.331 85.2032 652.232 93.2904 643.038 93.6597C633.843 94.029 632.108 86.4588 632.108 86.4588Z" fill="#FFBCAE"/>
<path d="M641.229 93.6228C641.229 93.6228 653.672 92.9581 656.035 83.2831C656.035 83.2831 659.728 90.7794 650.866 101.008C650.866 101.008 643.998 93.8075 641.229 93.6228Z" fill="white"/>
<path d="M632.699 84.2063C632.699 84.2063 629.228 88.453 631.406 100.085C631.406 100.085 637.831 93.4752 640.785 93.6229C640.785 93.5859 631.628 91.001 632.699 84.2063Z" fill="white"/>
<path d="M650.681 101.599C650.57 101.599 650.459 101.562 650.386 101.451C644.81 95.3215 640.564 94.1767 640.527 94.1767C638.828 94.1767 633.548 98.4603 631.665 100.122C631.554 100.233 631.406 100.233 631.258 100.196C631.111 100.159 631.037 100.011 631 99.9005C630.963 99.6051 629.892 92.4042 630.852 87.6036C630.889 87.382 631.074 87.2712 631.295 87.3082C631.517 87.3451 631.665 87.5667 631.591 87.7513C630.852 91.5548 631.443 97.1309 631.665 99.0881C633.437 97.5741 638.533 93.4012 640.6 93.4382C640.859 93.512 645.068 94.6198 650.644 100.676C652.01 99.2727 657.734 92.6996 655.887 84.1693C655.85 83.9477 655.961 83.7631 656.183 83.6892C656.404 83.6523 656.589 83.7631 656.663 83.9847C658.804 94.029 650.976 101.451 650.903 101.525C650.866 101.562 650.755 101.599 650.681 101.599Z" fill="#B5C0D9"/>
<path d="M640.638 79.6642L636.945 79.8119C627.197 80.1812 618.926 72.4263 618.557 62.6036L617.818 43.4381C617.449 33.5784 625.092 25.1958 634.84 24.8265L638.533 24.6788C648.281 24.3095 656.552 32.0643 656.922 41.8871L657.66 61.0526C658.029 70.9123 650.386 79.2949 640.638 79.6642Z" fill="#FFBCAE"/>
<path d="M618.519 62.0866C618.519 62.0866 622.175 64.5977 628.563 64.45C633.4 64.3392 639.086 64.7454 643.665 63.5637C646.102 62.936 647.912 60.7942 648.318 58.2831L649.056 53.9625L652.379 55.8828C652.379 55.8828 653.376 74.4574 648.244 80.7351C643.37 86.7174 629.892 90.3363 623.615 83.357C617.264 76.2299 618.519 62.0866 618.519 62.0866Z" fill="#191919"/>
<path d="M617.966 50.4172C617.966 50.4172 618.668 35.9785 619.221 34.3906C619.812 32.8027 617.597 37.0863 617.597 37.0863C617.597 37.0863 616.674 45.0627 617.966 50.4172Z" fill="#191919"/>
<path d="M646.213 35.1662C646.213 35.1662 648.945 38.2312 649.019 43.8442L649.056 54.3317C652.49 58.3568 655.223 56.2888 655.444 61.6064L655.555 71.7985C655.555 71.7985 657.66 66.3701 659.801 62.345C661.943 58.3198 664.122 51.4513 661.241 45.7644C659.986 43.2903 661.094 41.7393 661.684 39.8191C662.903 35.8678 660.872 33.1721 660.207 29.3685C659.026 23.1646 646.213 35.1662 646.213 35.1662Z" fill="#191919"/>
<path d="M663.383 57.9137C663.494 61.2741 660.909 64.1176 657.586 64.2653C654.263 64.413 652.232 61.7542 652.121 58.3568C652.01 54.9964 653.82 52.1899 657.143 52.0422C660.466 51.8945 663.272 54.5164 663.383 57.9137Z" fill="#FFBCAE"/>
<path d="M646.361 36.6801C646.361 36.6801 640.342 38.7111 635.689 37.0863C631.037 35.4615 623.763 41.0006 618.63 37.751C613.498 34.5014 610.174 31.2517 613.719 23.3123C617.264 15.3728 626.791 14.3757 630.409 17.1823C639.493 24.2354 642.188 16.0006 647.173 17.1084C653.376 18.5117 650.755 20.0626 656.035 21.4289C662.238 23.0168 660.097 25.7495 660.577 28.1129C660.983 30.1439 666.78 34.8337 661.648 39.8189C655.149 46.2074 646.361 36.6801 646.361 36.6801Z" fill="#191919"/>
<path d="M629.819 217.921C629.819 217.921 648.872 208.948 655.888 199.458C661.833 191.407 654.115 180.624 650.349 181.954C646.583 183.283 628.268 201.378 620.292 206.474C614.901 209.908 629.819 217.921 629.819 217.921Z" fill="#FFBCAE"/>
<path d="M633.363 207.951C635.653 214.081 632.366 220.839 626.015 223.017C619.664 225.196 612.685 221.983 610.433 215.853C608.144 209.724 611.43 202.966 617.781 200.787C624.095 198.608 631.111 201.821 633.363 207.951Z" fill="#FFBCAE"/>
<path d="M664.343 92.5149C669.845 85.2771 676.787 89.4868 681.587 94.5459C687.901 101.23 687.717 124.457 687.458 136.2C686.794 166.407 687.791 156.252 685.649 174.125C684.763 181.511 661.057 199.088 655.814 201.895L642.631 187.198C642.631 187.198 661.389 168.992 662.054 163.084C663.088 153.852 660.503 126.341 660.54 117.921C660.54 110.24 660.171 98.0171 664.343 92.5149Z" fill="url(#paint7_linear_90_24777)"/>
<path d="M638.164 185.536C636.982 186.496 636.872 188.158 637.906 189.266L653.156 205.477C654.189 206.585 656.036 206.732 657.217 205.772C658.399 204.812 658.51 203.15 657.476 202.043L642.226 185.831C641.192 184.723 639.346 184.576 638.164 185.536Z" fill="white"/>
<path d="M720.986 216.149H646.139C628.009 216.149 613.313 230.846 613.313 248.978V276.636C613.313 281.991 617.67 286.348 623.024 286.348H720.986C723.091 286.348 724.789 284.65 724.789 282.545V219.952C724.789 217.847 723.091 216.149 720.986 216.149Z" fill="#FF9F58"/>
<path d="M646.397 216.149H716.739C720.432 216.149 723.534 218.66 724.457 222.094H658.25C639.972 222.094 625.129 236.902 625.129 255.218V284.244C625.129 284.982 625.239 285.684 625.424 286.348H621.288C616.857 286.348 613.239 282.766 613.239 278.298V249.236C613.313 230.957 628.119 216.149 646.397 216.149Z" fill="#D4D4D4"/>
<path d="M458.265 217.589V323.83C458.265 326.747 455.902 339.044 452.985 339.044C450.068 339.044 447.705 326.747 447.705 323.83V217.589C447.705 214.672 450.068 212.308 452.985 212.308C455.902 212.345 458.265 214.709 458.265 217.589Z" fill="#655E6F"/>
<path d="M530.933 220.285H375.073C372.156 220.285 369.792 217.921 369.792 215.004C369.792 212.087 372.156 209.723 375.073 209.723H530.933C533.85 209.723 536.213 212.087 536.213 215.004C536.213 217.921 533.85 220.285 530.933 220.285Z" fill="#655E6F"/>
<path d="M486.254 360.536H419.752C416.835 360.536 414.472 358.173 414.472 355.255C414.472 352.338 416.835 349.975 419.752 349.975H486.254C489.171 349.975 491.534 352.338 491.534 355.255C491.534 358.173 489.171 360.536 486.254 360.536Z" fill="#655E6F"/>
<path d="M427.986 352.338L452.985 317.405L477.983 352.338H427.986Z" fill="#655E6F"/>
<path d="M638.29 67.9421C638.29 68.4086 635.491 69.575 632.108 69.6916C628.726 69.8083 625.926 68.6419 625.926 68.0587C625.926 67.7088 628.726 67.8254 632.108 67.7088C635.491 67.5922 638.29 67.3589 638.29 67.9421Z" fill="white"/>
<path d="M631.974 60.5311V59.9479C631.74 59.9479 631.507 59.9479 631.274 59.9479C629.874 59.9479 628.241 59.9479 627.308 59.1315C626.842 58.6649 626.842 57.8484 627.308 56.5654L627.425 56.2155C628.125 54.2326 629.758 50.1502 629.058 47.5842C628.708 46.4178 627.775 45.4847 626.958 45.2514C624.509 44.5516 621.943 45.368 619.61 46.6511L619.843 47.1176C622.176 45.9512 625.675 45.368 627.541 46.5344C627.891 46.7677 628.358 47.2343 628.475 47.8175C629.058 50.2669 627.541 54.2326 626.842 56.0988L626.725 56.4487C626.142 57.9651 626.258 59.0148 626.842 59.598C627.891 60.5311 629.641 60.5311 631.157 60.5311C631.507 60.4145 631.74 60.4145 631.974 60.5311Z" fill="#191919"/>
<path d="M638.272 50.15C638.272 51.0831 638.856 51.7829 639.556 51.7829C640.255 51.7829 640.839 50.9664 640.839 50.0333C640.839 49.1002 640.255 48.4004 639.556 48.4004C638.739 48.517 638.272 49.2169 638.272 50.15Z" fill="#191919"/>
<path d="M621.709 50.7332C621.709 51.6663 622.293 52.3662 622.992 52.3662C623.692 52.3662 624.275 51.5497 624.275 50.6166C624.275 49.6835 623.692 48.9836 622.992 48.9836C622.293 48.9836 621.709 49.8001 621.709 50.7332Z" fill="#191919"/>
<path d="M647.603 46.1841L647.836 45.6009C645.27 44.6678 642.937 44.2013 640.138 44.3179C637.572 44.4345 635.706 44.9011 634.073 46.0675L634.423 46.534C635.822 45.4843 637.572 45.0177 640.138 44.9011C642.937 44.9011 645.153 45.251 647.603 46.1841Z" fill="#191919"/>
<path d="M639.904 48.984C639.671 49.3339 639.554 49.6838 639.787 49.8005C640.021 49.9171 640.37 49.8004 640.604 49.4505C640.837 49.1006 640.954 48.7507 640.72 48.6341C640.487 48.5174 640.137 48.6341 639.904 48.984Z" fill="white"/>
<path d="M623.341 49.5669C623.108 49.9168 622.992 50.2667 623.225 50.3834C623.458 50.5 623.808 50.3833 624.041 50.0334C624.275 49.6835 624.391 49.3336 624.158 49.217C624.041 49.1003 623.691 49.2169 623.341 49.5669Z" fill="white"/>
<path d="M643.406 50.1502L643.755 49.6836C640.606 46.8843 638.273 48.4006 637.34 49.1004L637.69 49.567C638.623 48.7505 640.606 47.7008 643.406 50.1502Z" fill="#191919"/>
<path d="M625.095 50.6166L625.561 50.2667C624.628 48.7504 623.578 48.5171 622.878 48.6338C621.712 48.7504 620.895 49.6835 620.779 50.0334L621.362 50.2667C621.479 50.0334 622.179 49.3336 622.995 49.217C623.695 49.1003 624.395 49.5669 625.095 50.6166Z" fill="#191919"/>
<path d="M792.841 344.546C794.835 350.159 791.918 356.326 786.306 358.357C780.693 360.352 774.527 357.434 772.496 351.821C770.502 346.208 773.419 340.041 779.032 338.01C784.681 336.016 790.847 338.933 792.841 344.546Z" fill="#0F2748"/>
<path d="M821.938 331.622L777.48 347.501C775.745 348.129 773.862 347.205 773.234 345.507L727.115 216.481C726.487 214.746 727.41 212.862 729.109 212.235L773.566 196.356C776.779 195.211 780.287 196.873 781.431 200.085L825.631 323.793C826.812 326.932 825.151 330.477 821.938 331.622Z" fill="#579D45"/>
<path d="M741.294 215.669L737.306 217.367C737.011 217.478 736.678 217.367 736.568 217.072L698.646 128.852C698.535 128.556 698.646 128.224 698.941 128.113L702.929 126.414C703.224 126.304 703.557 126.414 703.667 126.71L741.589 214.93C741.737 215.189 741.589 215.521 741.294 215.669Z" fill="#579D45"/>
<path d="M747.087 205.752L744.932 206.523L793.307 341.818L795.463 341.047L747.087 205.752Z" fill="white"/>
<path d="M778.552 284.834L770.761 287.604C770.428 287.715 770.059 287.567 769.948 287.235L761.492 263.601C761.382 263.268 761.529 262.899 761.862 262.788L769.653 260.019C769.985 259.908 770.354 260.056 770.465 260.388L778.921 284.022C779.032 284.354 778.884 284.723 778.552 284.834Z" fill="white"/>
<path d="M367.023 167.921C367.023 167.921 362.962 190.816 351.626 190.816C340.29 190.816 340.29 190.816 340.29 190.816C340.29 190.816 334.603 176.008 330.948 167.921C343.945 167.921 367.023 167.921 367.023 167.921Z" fill="#B3958B"/>
<path d="M339.773 188.12C340.659 188.12 341.397 187.382 341.397 186.496C341.397 185.609 340.659 184.871 339.773 184.871C334.825 184.871 331.723 183.098 330.541 179.664C329.803 177.522 329.914 175.565 330.837 174.273C331.501 173.349 332.572 172.869 333.902 172.869C334.788 172.869 335.526 172.131 335.526 171.245C335.526 170.358 334.788 169.62 333.902 169.62C331.501 169.62 329.471 170.617 328.178 172.389C326.664 174.531 326.406 177.559 327.477 180.698C329.101 185.499 333.458 188.12 339.773 188.12Z" fill="#B3958B"/>
<path d="M401.511 203.482C401.806 203.556 404.576 205.403 407.013 207.028C409.413 208.615 412.182 209.465 415.062 209.465H444.861C446.485 209.465 448.073 208.874 449.292 207.766L454.092 203.482H401.511Z" fill="#B3958B"/>
<defs>
<linearGradient id="paint0_linear_90_24777" x1="286.281" y1="77.9334" x2="269.959" y2="144.517" gradientUnits="userSpaceOnUse">
<stop stop-color="#579D45"/>
<stop offset="1" stop-color="#579D45"/>
</linearGradient>
<linearGradient id="paint1_linear_90_24777" x1="255.335" y1="105.571" x2="253.274" y2="253.827" gradientUnits="userSpaceOnUse">
<stop stop-color="#67B353"/>
<stop offset="1" stop-color="#4A9836"/>
</linearGradient>
<linearGradient id="paint2_linear_90_24777" x1="304.595" y1="359.086" x2="326.396" y2="359.086" gradientUnits="userSpaceOnUse">
<stop stop-color="#E50000"/>
<stop offset="1" stop-color="#BB0000"/>
</linearGradient>
<linearGradient id="paint3_linear_90_24777" x1="348.335" y1="359.086" x2="370.136" y2="359.086" gradientUnits="userSpaceOnUse">
<stop stop-color="#E50000"/>
<stop offset="1" stop-color="#BB0000"/>
</linearGradient>
<linearGradient id="paint4_linear_90_24777" x1="259.747" y1="82.1278" x2="233.576" y2="145.492" gradientUnits="userSpaceOnUse">
<stop stop-color="#579D45"/>
<stop offset="1" stop-color="#579D45"/>
</linearGradient>
<linearGradient id="paint5_linear_90_24777" x1="529.868" y1="99.9122" x2="612.31" y2="145.171" gradientUnits="userSpaceOnUse">
<stop stop-color="#FFE459"/>
<stop offset="0.8109" stop-color="#E2CA4E"/>
<stop offset="1" stop-color="#F9A931"/>
</linearGradient>
<linearGradient id="paint6_linear_90_24777" x1="585.92" y1="114.612" x2="668.363" y2="159.871" gradientUnits="userSpaceOnUse">
<stop stop-color="#E4BF40"/>
<stop offset="1" stop-color="#F3AA3D"/>
</linearGradient>
<linearGradient id="paint7_linear_90_24777" x1="638.175" y1="198.32" x2="690.988" y2="105.635" gradientUnits="userSpaceOnUse">
<stop stop-color="#F9D149"/>
<stop offset="1" stop-color="#F4A226"/>
</linearGradient>
</defs>
</svg>
