<svg width="764" height="306" viewBox="0 0 764 306" fill="none" xmlns="http://www.w3.org/2000/svg">
<ellipse opacity="0.2" cx="284.5" cy="279.5" rx="284.5" ry="7.5" fill="#191919"/>
<ellipse opacity="0.2" cx="525.5" cy="264.5" rx="237.5" ry="7.5" fill="#191919"/>
<path d="M676.619 224.006C676.619 232.802 678.762 240.978 682.37 247.575V263.983H706.446C716.088 263.983 724.602 257.893 730.015 248.364C733.906 241.598 736.217 233.197 736.217 224.006C736.217 205.005 726.294 189.104 713.043 185.101V184.086H682.37V200.494C678.705 207.091 676.619 215.21 676.619 224.006Z" fill="#23252E"/>
<path d="M682.371 263.926C698.813 263.926 712.142 246.054 712.142 224.006C712.142 201.959 698.813 184.086 682.371 184.086C665.929 184.086 652.6 201.959 652.6 224.006C652.6 246.054 665.929 263.926 682.371 263.926Z" fill="#191926"/>
<path d="M409.753 224.006C409.753 232.802 411.895 240.978 415.504 247.575V263.983H439.524C449.165 263.983 457.679 257.893 463.092 248.364C466.983 241.598 469.295 233.197 469.295 224.006C469.295 205.005 459.371 189.104 446.121 185.101V184.086H415.504V200.494C411.839 207.091 409.753 215.21 409.753 224.006Z" fill="#23252E"/>
<path d="M415.504 263.926C431.946 263.926 445.275 246.054 445.275 224.006C445.275 201.959 431.946 184.086 415.504 184.086C399.062 184.086 385.733 201.959 385.733 224.006C385.733 246.054 399.062 263.926 415.504 263.926Z" fill="#191926"/>
<path d="M310.403 245.094H723.193C732.102 245.094 739.375 237.877 739.375 228.912V181.549C739.375 172.64 732.158 165.367 723.193 165.367H310.403C301.494 165.367 294.221 172.584 294.221 181.549V228.912C294.221 237.877 301.494 245.094 310.403 245.094Z" fill="#191926"/>
<path d="M582.007 224.006C582.007 232.802 584.149 240.978 587.758 247.575V263.983H611.778C621.42 263.983 629.934 257.893 635.346 248.364C639.237 241.598 641.549 233.197 641.549 224.006C641.549 205.005 631.625 189.104 618.375 185.101V184.086H587.702V200.494C584.093 207.091 582.007 215.21 582.007 224.006Z" fill="#272936"/>
<path d="M582.007 224.006C582.007 232.802 584.149 240.978 587.758 247.575V248.421H635.403C639.293 241.655 641.605 233.253 641.605 224.063C641.605 205.061 631.681 189.161 618.431 185.158V184.143H587.758V200.551C584.093 207.091 582.007 215.211 582.007 224.006Z" fill="#191926"/>
<path d="M587.758 263.926C604.2 263.926 617.529 246.054 617.529 224.006C617.529 201.959 604.2 184.086 587.758 184.086C571.316 184.086 557.987 201.959 557.987 224.006C557.987 246.054 571.316 263.926 587.758 263.926Z" fill="#272936"/>
<path d="M587.758 260.995C602.985 260.995 615.33 244.434 615.33 224.006C615.33 203.578 602.985 187.018 587.758 187.018C572.53 187.018 560.186 203.578 560.186 224.006C560.186 244.434 572.53 260.995 587.758 260.995Z" fill="#454751"/>
<path d="M587.363 251.635C598.2 251.635 606.985 239.038 606.985 223.499C606.985 207.96 598.2 195.363 587.363 195.363C576.526 195.363 567.741 207.96 567.741 223.499C567.741 239.038 576.526 251.635 587.363 251.635Z" fill="#D4D9E8"/>
<path d="M569.941 223.499C569.941 237.313 577.778 248.534 587.363 248.534C594.355 248.534 600.388 242.67 603.151 234.156C604.222 230.942 604.786 227.333 604.786 223.555C604.786 209.741 596.949 198.521 587.363 198.521C580.428 198.521 574.395 204.385 571.576 212.842C570.504 216.056 569.941 219.665 569.941 223.499Z" fill="#ABAFBB"/>
<path d="M569.941 223.499C569.941 237.313 577.778 248.534 587.363 248.534C594.355 248.534 600.388 242.67 603.151 234.156C604.222 230.942 604.786 227.333 604.786 223.555C604.786 209.741 596.949 198.521 587.363 198.521C580.428 198.521 574.395 204.385 571.576 212.842C570.504 216.056 569.941 219.665 569.941 223.499Z" fill="#ABAFBB"/>
<path d="M572.309 223.499C572.309 235.452 579.075 245.094 587.364 245.094C593.397 245.094 598.584 240.019 601.009 232.633C601.911 229.87 602.419 226.713 602.419 223.442C602.419 211.489 595.652 201.847 587.364 201.847C581.387 201.847 576.143 206.865 573.775 214.195C572.817 217.071 572.309 220.229 572.309 223.499Z" fill="#D4D9E8"/>
<path d="M572.309 223.499C572.309 235.452 579.075 245.094 587.364 245.094C593.397 245.094 598.584 240.019 601.009 232.633C601.911 229.87 602.419 226.713 602.419 223.442C602.419 211.489 595.652 201.847 587.364 201.847C581.387 201.847 576.143 206.865 573.775 214.195C572.817 217.071 572.309 220.229 572.309 223.499Z" fill="#D4D9E8"/>
<path d="M574.226 223.499C574.226 233.93 580.146 242.331 587.363 242.331C592.663 242.331 597.174 237.877 599.26 231.449C600.05 229.025 600.501 226.318 600.501 223.443C600.501 213.011 594.58 204.61 587.363 204.61C582.119 204.61 577.609 209.008 575.466 215.38C574.62 217.917 574.226 220.623 574.226 223.499Z" fill="#ABAFBB"/>
<path d="M574.226 223.499C574.226 233.93 580.146 242.331 587.363 242.331C592.663 242.331 597.174 237.877 599.26 231.449C600.05 229.025 600.501 226.318 600.501 223.443C600.501 213.011 594.58 204.61 587.363 204.61C582.119 204.61 577.609 209.008 575.466 215.38C574.62 217.917 574.226 220.623 574.226 223.499Z" fill="#ABAFBB"/>
<path d="M571.576 212.786C585.052 216.451 595.37 224.739 603.151 234.099C604.222 230.885 604.786 227.277 604.786 223.499C604.786 209.685 596.949 198.464 587.364 198.464C580.428 198.464 574.395 204.328 571.576 212.786Z" fill="#6F7EA8"/>
<path d="M587.363 231.562C590.446 231.562 592.945 227.952 592.945 223.499C592.945 219.046 590.446 215.436 587.363 215.436C584.28 215.436 581.781 219.046 581.781 223.499C581.781 227.952 584.28 231.562 587.363 231.562Z" fill="#E6F2FF"/>
<path d="M321.341 225.473C321.341 233.93 323.202 241.824 326.36 248.139V263.927H347.278C355.679 263.927 363.066 258.063 367.802 248.928C371.185 242.444 373.215 234.325 373.215 225.473C373.215 207.204 364.588 191.867 353.029 188.033V187.018H326.303V202.806C323.146 209.234 321.341 217.015 321.341 225.473Z" fill="#272936"/>
<path d="M321.341 225.473C321.341 233.93 323.202 241.824 326.36 248.139V248.928H367.858C371.241 242.444 373.271 234.325 373.271 225.473C373.271 207.204 364.645 191.867 353.086 188.033V187.018H326.36V202.806C323.146 209.234 321.341 217.015 321.341 225.473Z" fill="#191926"/>
<path d="M326.36 263.984C340.684 263.984 352.296 246.767 352.296 225.53C352.296 204.292 340.684 187.075 326.36 187.075C312.035 187.075 300.423 204.292 300.423 225.53C300.423 246.767 312.035 263.984 326.36 263.984Z" fill="#272936"/>
<path d="M326.359 261.107C339.625 261.107 350.379 245.178 350.379 225.529C350.379 205.879 339.625 189.95 326.359 189.95C313.094 189.95 302.34 205.879 302.34 225.529C302.34 245.178 313.094 261.107 326.359 261.107Z" fill="#454751"/>
<path d="M325.965 252.086C335.401 252.086 343.05 239.969 343.05 225.021C343.05 210.074 335.401 197.957 325.965 197.957C316.53 197.957 308.881 210.074 308.881 225.021C308.881 239.969 316.53 252.086 325.965 252.086Z" fill="#D4D9E8"/>
<path d="M310.798 225.021C310.798 238.328 317.621 249.097 326.022 249.097C332.111 249.097 337.355 243.459 339.78 235.227C340.738 232.126 341.189 228.63 341.189 225.021C341.189 211.714 334.367 200.945 325.965 200.945C319.932 200.945 314.689 206.584 312.208 214.759C311.249 217.86 310.798 221.356 310.798 225.021Z" fill="#ABAFBB"/>
<path d="M310.798 225.021C310.798 238.328 317.621 249.097 326.022 249.097C332.111 249.097 337.355 243.459 339.78 235.227C340.738 232.126 341.189 228.63 341.189 225.021C341.189 211.714 334.367 200.945 325.965 200.945C319.932 200.945 314.689 206.584 312.208 214.759C311.249 217.86 310.798 221.356 310.798 225.021Z" fill="#ABAFBB"/>
<path d="M312.827 225.021C312.827 236.524 318.691 245.827 325.965 245.827C331.209 245.827 335.719 240.922 337.862 233.874C338.651 231.224 339.103 228.179 339.103 225.021C339.103 213.519 333.239 204.216 325.965 204.216C320.721 204.216 316.21 209.065 314.124 216.113C313.278 218.819 312.827 221.864 312.827 225.021Z" fill="#D4D9E8"/>
<path d="M312.827 225.021C312.827 236.524 318.691 245.827 325.965 245.827C331.209 245.827 335.719 240.922 337.862 233.874C338.651 231.224 339.103 228.179 339.103 225.021C339.103 213.519 333.239 204.216 325.965 204.216C320.721 204.216 316.21 209.065 314.124 216.113C313.278 218.819 312.827 221.864 312.827 225.021Z" fill="#D4D9E8"/>
<path d="M314.519 225.021C314.519 235.058 319.65 243.177 325.965 243.177C330.532 243.177 334.479 238.892 336.34 232.746C337.016 230.434 337.411 227.784 337.411 225.021C337.411 214.985 332.28 206.866 325.965 206.866C321.398 206.866 317.451 211.095 315.59 217.24C314.914 219.609 314.519 222.259 314.519 225.021Z" fill="#ABAFBB"/>
<path d="M314.519 225.021C314.519 235.058 319.65 243.177 325.965 243.177C330.532 243.177 334.479 238.892 336.34 232.746C337.016 230.434 337.411 227.784 337.411 225.021C337.411 214.985 332.28 206.866 325.965 206.866C321.398 206.866 317.451 211.095 315.59 217.24C314.914 219.609 314.519 222.259 314.519 225.021Z" fill="#ABAFBB"/>
<path d="M312.263 214.703C323.991 218.255 333.013 226.205 339.779 235.227C340.738 232.126 341.189 228.63 341.189 225.021C341.189 211.715 334.366 200.945 325.965 200.945C319.932 200.945 314.688 206.527 312.263 214.703Z" fill="#6F7EA8"/>
<path d="M321.116 225.021C321.116 229.307 323.315 232.746 326.021 232.746C328.728 232.746 330.927 229.307 330.927 225.021C330.927 220.736 328.728 217.297 326.021 217.297C323.259 217.297 321.116 220.736 321.116 225.021Z" fill="#E6F2FF"/>
<path d="M283 202.524C283 202.524 283.113 226.262 287.285 235.114H298.055V209.29C298.055 200.663 301.325 192.826 306.625 187.018C307.696 185.834 308.88 184.707 310.121 183.748H310.177C311.869 182.508 313.786 181.549 315.759 180.76C315.816 180.76 315.816 180.76 315.816 180.703C319.086 179.406 322.638 178.73 326.36 178.73H332.054C339.61 178.73 346.432 181.887 351.451 187.075C356.638 192.431 359.908 199.818 359.908 208.106V225.754C359.908 226.713 359.852 232.802 359.739 235.171H554.209V208.557C554.209 200.381 557.085 192.826 561.877 187.075C563.287 185.27 564.978 183.692 566.783 182.226H566.839C568.643 180.929 570.617 179.97 572.647 179.125C572.703 179.125 572.703 179.125 572.703 179.068C576.086 177.715 579.807 177.038 583.642 177.038H589.618C598.132 177.038 605.801 180.872 611.044 187.018C615.724 192.375 618.543 199.423 618.543 207.26V225.416C618.543 226.375 618.431 232.69 618.374 235.114H742.082C742.082 235.114 764.579 223.555 763.677 187.018C763.677 186.003 763.621 185.101 763.564 184.03C761.309 180.139 756.121 178.673 756.121 178.673L745.916 150.876L745.408 149.41L745.07 148.564C745.07 148.564 732.835 137.682 664.215 119.639C664.215 119.639 625.93 81.8051 602.361 66.6377C594.524 60.8301 588.209 56.3757 583.191 52.9926C573.774 46.6776 562.892 42.8998 551.559 41.9413C514.345 38.8402 417.928 33.8783 318.184 53.3873C317.564 54.2895 316.887 55.248 316.323 56.2629C312.771 61.9578 309.332 69.4569 306.23 78.2529C296.307 105.938 288.808 146.76 287.06 187.018C286.834 192.206 286.721 197.393 286.665 202.468C283 202.524 283 202.524 283 202.524Z" fill="#1E2859"/>
<path d="M306.343 78.3092L523.931 79.3241L498.388 51.3574L316.436 56.3192C314.237 59.8715 312.038 64.1003 310.008 68.893C309.783 69.4568 309.501 70.077 309.275 70.6973C308.26 73.1218 307.302 75.6591 306.343 78.3092Z" fill="#111C4E"/>
<path d="M453.901 155.217C457.949 155.217 461.231 153.45 461.231 151.27C461.231 149.091 457.949 147.324 453.901 147.324C449.853 147.324 446.571 149.091 446.571 151.27C446.571 153.45 449.853 155.217 453.901 155.217Z" fill="#0A1239"/>
<path d="M618.544 220.003C618.544 220.962 618.431 227.277 618.374 229.701H742.082C742.082 229.701 752.513 224.345 758.884 209.459C761.873 202.468 764.015 193.333 763.733 181.662H611.044C615.724 187.018 618.544 194.066 618.544 201.904V220.003Z" fill="#333754"/>
<path d="M618.544 225.472C618.544 226.431 618.431 232.746 618.374 235.171H742.082C742.082 235.171 752.513 229.814 758.884 214.929C761.873 207.937 764.015 198.803 763.733 187.131H611.044C615.724 192.488 618.544 199.536 618.544 207.373V225.472Z" fill="url(#paint0_linear_222_16493)"/>
<path d="M629.821 196.265H645.045C645.947 196.265 646.68 195.532 646.68 194.63V191.529C646.68 190.627 645.947 189.894 645.045 189.894H629.821C628.919 189.894 628.186 190.627 628.186 191.529V194.63C628.186 195.532 628.919 196.265 629.821 196.265Z" fill="url(#paint1_linear_222_16493)"/>
<path d="M618.375 235.171H742.082C742.082 235.171 752.513 229.814 758.884 214.929H618.544V225.529C618.544 226.431 618.431 232.746 618.375 235.171Z" fill="url(#paint2_linear_222_16493)"/>
<path d="M359.909 208.106V225.754C359.909 226.713 359.852 232.802 359.74 235.171H554.209V208.557C554.209 200.381 557.085 192.826 561.878 187.075H351.451C356.695 192.431 359.909 199.874 359.909 208.106Z" fill="url(#paint3_linear_222_16493)"/>
<path d="M545.639 226.713H373.159V228.517H545.639V226.713Z" fill="#283A8E"/>
<path d="M283 202.524C283 202.524 283.113 226.262 287.285 235.114H298.055V209.29C298.055 200.663 301.325 192.826 306.625 187.018H287.172C286.947 192.206 286.834 197.393 286.778 202.468C283 202.524 283 202.524 283 202.524Z" fill="url(#paint4_linear_222_16493)"/>
<path d="M556.634 148.733H512.372C508.932 148.733 505.606 147.38 503.181 144.899C500.757 142.475 497.43 141.065 493.99 141.065H452.548C450.18 141.065 448.319 138.979 448.601 136.611L454.803 82.8199C455.029 80.7901 456.72 79.2677 458.75 79.2677H496.133C502.335 79.2677 508.256 81.9177 512.372 86.5413L560.355 140.388C563.231 143.659 560.919 148.733 556.634 148.733Z" fill="#283A8E"/>
<path d="M596.215 76.7866L576.763 62.6342C570.899 58.3489 563.851 56.0936 556.633 56.0936H496.302C494.216 56.0936 492.524 54.402 492.524 52.3158C492.524 50.286 494.103 48.6508 496.133 48.5381L552.461 45.6625C563.794 45.0986 574.958 48.5944 583.924 55.5297L607.943 74.0802L596.215 76.7866Z" fill="#283A8E"/>
<path d="M664.271 153.526L574.225 135.878L509.045 57.7288C503.97 51.6393 496.415 48.2563 488.521 48.4818L318.353 53.5L315.59 57.8416L476.68 53.7819C490.889 53.4436 504.534 59.5895 513.612 70.5281L571.011 139.712L633.598 152.173C638.729 153.188 643.24 156.289 646.059 160.743L659.14 181.605L664.328 174.952L664.271 153.526Z" fill="#333754"/>
<path d="M577.045 133.735L676.394 150.199C679.157 150.65 681.977 150.876 684.796 150.932C697.426 150.989 734.696 151.158 745.973 150.989L745.465 149.523C696.467 135.145 577.045 133.735 577.045 133.735Z" fill="#283A8E"/>
<path d="M560.864 142.869L565.882 137.513L515.362 81.3539C509.103 74.3623 500.081 70.2462 490.722 70.0206L446.967 68.8929L446.911 70.6973L490.665 71.8249C499.574 72.0505 508.088 75.9974 514.008 82.5943L563.401 137.513L559.511 141.685L560.864 142.869Z" fill="#0A1239"/>
<path d="M545.638 189.048H357.033V190.852H545.638V189.048Z" fill="#0A1239"/>
<path d="M372.314 224.909H546.542L546.654 195.363C545.752 176.418 550.714 146.816 550.771 146.534L549.023 146.252C548.966 146.534 544.004 176.362 544.907 195.42L544.794 223.104H374.118V206.866C374.062 205.738 372.821 179.463 356.865 175.854L356.47 177.602C371.13 180.872 372.314 206.64 372.37 206.866L372.314 224.909Z" fill="#0A1239"/>
<path d="M438.565 224.796C438.622 224.796 438.622 224.796 438.678 224.796C439.58 224.739 439.524 223.837 439.524 223.499C439.355 222.259 438.904 215.887 437.156 187.075C438.227 140.219 447.756 70.6409 447.869 69.9643L446.065 69.7388C445.952 70.4154 436.423 140.163 435.352 187.131C436.254 201.509 436.874 211.884 437.325 217.973C437.494 220.511 437.607 222.033 437.663 222.935C437.72 224.176 437.776 224.796 438.565 224.796Z" fill="#0A1239"/>
<path d="M671.545 208.106C671.545 210.925 675.605 213.181 680.567 213.181C685.529 213.181 689.588 210.925 689.588 208.106C689.588 205.287 685.529 203.031 680.567 203.031C675.605 203.031 671.545 205.287 671.545 208.106Z" fill="#333754"/>
<path d="M675.097 208.106C675.097 210.925 679.157 213.181 684.119 213.181C689.137 213.181 693.14 210.925 693.14 208.106C693.14 205.287 689.08 203.031 684.119 203.031C679.157 203.031 675.097 205.287 675.097 208.106Z" fill="#333754"/>
<path d="M676.169 208.162C676.169 210.249 678.819 212.109 682.371 212.504C682.935 212.56 683.499 212.617 684.175 212.617C688.63 212.617 692.182 210.587 692.182 208.162C692.182 205.681 688.63 203.652 684.175 203.652C683.555 203.652 682.935 203.708 682.371 203.764C678.819 204.159 676.169 206.02 676.169 208.162Z" fill="#222445"/>
<path d="M676.169 208.163C676.169 210.249 678.819 212.11 682.371 212.504C685.923 212.053 688.573 210.249 688.573 208.163C688.573 206.02 685.923 204.216 682.371 203.765C678.819 204.159 676.169 206.02 676.169 208.163Z" fill="#606270"/>
<path d="M715.412 218.03H747.043C751.892 218.03 756.121 215.267 757.249 211.32L762.154 194.179C762.775 192.036 760.801 189.95 758.095 189.95H721.05C719.359 189.95 717.893 190.796 717.216 192.036L708.364 209.121C706.108 213.293 709.886 218.03 715.412 218.03Z" fill="#222445"/>
<path d="M699.287 162.434L699.963 163.393L702.162 166.381L705.207 170.61L706.504 172.415C706.786 172.809 707.124 173.204 707.406 173.542C710.338 176.813 714.511 178.786 718.965 178.786H752.063C753.359 178.786 754.262 177.433 753.754 176.192L747.157 160.63C746.875 159.954 746.199 159.502 745.466 159.502H700.809C699.287 159.446 698.441 161.194 699.287 162.434Z" fill="#222445"/>
<path d="M699.963 163.337L702.162 166.325H743.717C744.563 166.325 745.24 165.649 745.24 164.859C745.24 164.014 744.563 163.337 743.717 163.337H699.963Z" fill="#9A9DB5"/>
<path d="M705.207 170.554L706.503 172.358C706.785 172.753 707.124 173.148 707.406 173.486H746.987C747.833 173.486 748.51 172.809 748.51 172.02C748.51 171.174 747.833 170.498 746.987 170.498L705.207 170.554Z" fill="#9A9DB5"/>
<path d="M522.352 74.7006L563.174 122.966C568.813 129.675 577.27 133.397 586.01 133.002C611.552 131.818 636.474 131.705 660.437 132.889C665.287 133.115 667.937 127.364 664.666 123.811C651.698 109.603 626.269 83.6093 602.362 68.9494C578.229 66.1302 552.405 65.9046 524.946 68.2728C521.901 68.6111 520.379 72.3324 522.352 74.7006Z" fill="#222445"/>
<path d="M529.062 77.0124L529.682 77.7454L567.403 120.823C572.76 126.913 580.654 130.296 588.886 129.957C606.59 129.168 624.013 128.886 640.985 129.224C646.341 129.393 651.641 129.563 656.885 129.788C657.562 129.788 658.238 129.845 658.915 129.845C663.482 130.07 665.963 124.826 662.918 121.612C652.487 110.561 633.542 91.7851 614.259 78.3092C610.988 75.9975 607.662 73.8549 604.335 71.8814C595.483 70.8665 586.405 70.2463 577.045 69.9644C562.441 69.5133 547.274 69.9644 531.543 71.2612C531.204 71.3176 530.81 71.374 530.528 71.4867C528.272 72.3325 527.427 75.1517 529.062 77.0124Z" fill="url(#paint5_linear_222_16493)"/>
<path d="M577.045 69.9642C626.156 86.7104 638.222 114 640.985 129.224C647.018 129.393 652.995 129.563 658.915 129.844C663.482 130.07 665.963 124.826 662.919 121.612C650.683 108.7 626.833 85.1316 604.335 71.8813C595.483 70.9227 586.405 70.3025 577.045 69.9642Z" fill="#41639E"/>
<path d="M575.184 71.8251C575.41 71.8815 575.635 71.9942 575.861 72.0506C583.416 72.3889 590.746 72.9528 597.964 73.7422C620.461 86.9925 644.312 110.561 656.547 123.473C659.31 126.349 657.562 130.86 653.953 131.536C655.025 131.593 656.04 131.593 657.111 131.649C661.678 131.874 664.159 126.631 661.114 123.417C648.879 110.505 625.028 86.9361 602.531 73.6858C593.622 72.7836 584.544 72.1634 575.184 71.8251Z" fill="#4CA3D1"/>
<path d="M556.634 146.534H512.372C508.932 146.534 505.606 145.181 503.181 142.7C500.757 140.276 497.43 138.866 493.99 138.866H452.548C450.18 138.866 448.319 136.78 448.601 134.412L454.803 80.6208C455.029 78.591 456.72 77.0686 458.75 77.0686H496.133C502.335 77.0686 508.256 79.7187 512.372 84.3422L560.355 138.189C563.231 141.46 560.919 146.534 556.634 146.534Z" fill="#454751"/>
<path d="M451.195 132.438C450.913 134.581 452.605 136.498 454.804 136.498H496.077C499.235 136.498 502.279 137.738 504.535 139.937C506.79 142.136 509.835 143.433 512.992 143.433H550.262C554.209 143.433 556.296 138.809 553.646 135.877L535.546 115.748L517.56 95.7318L509.609 86.9358C505.832 82.707 500.419 80.3389 494.724 80.3389H460.442C458.581 80.3389 457.059 81.7485 456.777 83.5528L455.368 95.7882L451.195 132.438Z" fill="url(#paint6_linear_222_16493)"/>
<path d="M456.833 83.4966L455.424 95.732H517.559L509.609 86.936C505.831 82.7072 500.418 80.339 494.724 80.339H460.442C458.581 80.2827 457.059 81.6923 456.833 83.4966Z" fill="url(#paint7_linear_222_16493)"/>
<path d="M535.546 115.692V143.433H550.262C554.209 143.433 556.295 138.81 553.645 135.878L535.546 115.692Z" fill="#454751"/>
<path d="M698.779 180.647H669.515C665.286 180.647 661.396 178.73 659.479 175.741L645.89 154.259C644.65 152.342 646.623 150.086 649.329 150.256L674.928 152.116C683.78 152.736 691.505 157.191 695.001 163.731L701.992 176.869C702.951 178.617 701.26 180.647 698.779 180.647Z" fill="#222445"/>
<path d="M697.707 179.97H669.684C665.625 179.97 661.903 178.166 660.043 175.29L647.018 154.654C645.834 152.793 647.695 150.651 650.288 150.82L674.815 152.568C683.329 153.188 690.716 157.473 694.042 163.675L700.752 176.249C701.711 178.053 700.076 179.97 697.707 179.97Z" fill="#9DB8F2"/>
<path d="M694.606 178.11H670.192C666.64 178.11 663.426 176.531 661.847 173.993L650.514 156.063C649.499 154.428 651.078 152.567 653.389 152.737L674.759 154.259C682.145 154.766 688.573 158.488 691.505 163.957L697.369 174.896C698.102 176.418 696.693 178.11 694.606 178.11Z" fill="white"/>
<path d="M653.615 157.304L655.137 159.672L655.589 160.348L663.482 172.866C664.892 175.008 667.711 176.418 670.756 176.418H691.9C693.704 176.418 694.888 174.952 694.212 173.655L689.137 164.183C688.686 163.337 688.122 162.491 687.446 161.758C686.826 161.025 686.149 160.348 685.36 159.728C682.54 157.529 678.763 156.063 674.646 155.781L656.152 154.428C654.123 154.315 652.713 155.894 653.615 157.304Z" fill="#9DB8F2"/>
<path d="M654.292 159.728L655.532 160.405L667.88 167.396H675.154L687.389 161.758C686.769 161.025 686.092 160.348 685.303 159.728H654.292Z" fill="#4F7EE3"/>
<path d="M509.553 128.153V136.78C509.553 139.148 511.188 141.178 513.387 141.742C513.782 141.911 514.233 141.967 514.684 141.967H533.178C536.053 141.967 538.309 139.655 538.309 136.836V125.503C538.309 124.714 538.083 123.981 537.801 123.304C536.899 121.33 534.757 120.034 532.388 120.428L513.894 123.135C513.556 123.191 513.161 123.304 512.879 123.417C510.962 124.037 509.553 125.954 509.553 128.153Z" fill="#454751"/>
<path d="M512.936 123.304V123.755C512.936 125.277 514.12 126.461 515.642 126.461H538.422V125.447C538.422 124.657 538.196 123.924 537.914 123.248C537.012 121.274 534.869 119.977 532.501 120.372L514.007 123.078C513.612 123.078 513.218 123.191 512.936 123.304Z" fill="#808496"/>
<path d="M512.936 130.916V139.543C512.936 140.332 513.105 141.065 513.387 141.742C513.782 141.911 514.233 141.967 514.684 141.967H533.178C536.053 141.967 538.309 139.655 538.309 136.836V125.503C538.309 124.714 538.083 123.981 537.801 123.304C537.181 123.078 536.504 123.078 535.828 123.135L517.334 125.898C514.853 126.18 512.936 128.322 512.936 130.916Z" fill="#222445"/>
<path d="M547.048 208.783V235.17H554.322V208.557C554.322 197.844 559.227 188.259 566.839 182.225C568.644 180.985 570.617 179.97 572.703 179.124C572.76 179.124 572.76 179.124 572.816 179.068C576.199 177.715 579.92 177.038 583.755 177.038H589.675C605.632 177.038 618.6 190.57 618.6 207.26V225.416C618.6 226.544 618.544 233.986 618.431 235.114H626.719V208.726C626.719 186.68 609.748 168.919 588.66 168.919H585.108C564.076 168.975 547.048 186.736 547.048 208.783Z" fill="url(#paint8_linear_222_16493)"/>
<path d="M551.503 208.275V235.171H554.265V208.557C554.265 197.844 559.171 188.315 566.783 182.282H566.839C568.644 180.985 570.617 180.027 572.647 179.181C572.703 179.181 572.703 179.181 572.703 179.124C576.086 177.771 579.808 177.095 583.642 177.095H589.619C605.575 177.095 618.544 190.627 618.544 207.317V225.472C618.544 226.431 618.487 231.675 618.487 234.099C618.431 234.55 618.431 234.945 618.431 235.114H622.265V208.275C622.265 188.71 607.21 172.922 588.491 172.922H585.333C566.614 172.922 551.503 188.71 551.503 208.275Z" fill="#454751"/>
<path d="M291.007 209.516V235.114H297.999V209.29C297.999 198.915 302.735 189.612 310.065 183.748C311.813 182.508 313.73 181.549 315.703 180.76C315.76 180.76 315.76 180.76 315.816 180.703C319.087 179.406 322.639 178.73 326.36 178.73H332.055C347.448 178.73 359.909 191.867 359.909 208.106V225.754C359.909 226.882 359.852 234.099 359.74 235.171H367.69V209.572C367.69 188.202 351.338 170.949 331.04 170.949H327.657C307.415 170.892 291.007 188.146 291.007 209.516Z" fill="url(#paint9_linear_222_16493)"/>
<path d="M295.292 209.008V235.171H297.999V209.347C297.999 198.972 302.735 189.668 310.065 183.804H310.121C311.813 182.564 313.73 181.605 315.703 180.816C315.76 180.816 315.76 180.816 315.76 180.76C319.03 179.463 322.582 178.786 326.304 178.786H332.055C347.391 178.786 359.909 191.98 359.909 208.162V225.754C359.909 226.713 359.852 231.788 359.796 234.099C359.796 234.55 359.74 234.945 359.74 235.114H363.405V208.952C363.405 190.007 348.857 174.67 330.871 174.67H327.826C309.896 174.727 295.292 190.063 295.292 209.008Z" fill="#454751"/>
<path d="M529.062 77.0123L529.682 77.7453L567.403 120.823C572.76 126.912 580.653 130.295 588.886 129.957C606.59 129.168 624.013 128.886 640.985 129.224C646.341 129.393 651.641 129.562 656.885 129.788C637.545 113.831 589.675 79.324 530.471 71.543C528.272 72.3324 527.427 75.1516 529.062 77.0123Z" fill="url(#paint10_linear_222_16493)"/>
<path d="M529.062 77.0122L529.682 77.7452C567.178 74.644 595.821 76.2228 614.258 78.3654C610.988 76.0536 607.662 73.911 604.335 71.9376C595.482 70.9227 586.405 70.3024 577.045 70.0205C562.441 69.5694 547.274 70.0205 531.543 71.3173C528.611 71.4865 527.145 74.8696 529.062 77.0122Z" fill="#454751"/>
<path d="M285.65 180.534C285.594 181.042 285.988 181.493 286.496 181.549L288.018 181.662C290.95 181.887 293.488 179.688 293.713 176.756L293.939 173.655L294.39 168.242L294.841 161.927L295.235 156.458L295.292 155.612C295.517 152.737 293.375 150.143 290.386 149.917L288.864 149.805C288.357 149.748 287.906 150.143 287.849 150.65L285.65 180.534Z" fill="#940039"/>
<path d="M686.487 160.574H656.039C655.363 160.574 654.686 160.236 654.292 159.672L651.36 155.725C650.401 154.428 651.416 152.567 653.051 152.68L676.733 154.428C678.762 154.597 680.623 155.387 682.145 156.684L686.487 160.574Z" fill="white"/>
<path d="M374.23 197.957H541.861C543.665 197.957 545.188 196.491 545.188 194.63C545.188 192.826 543.722 191.303 541.861 191.303H374.23C372.426 191.303 370.904 192.769 370.904 194.63C370.96 196.491 372.426 197.957 374.23 197.957Z" fill="#454751"/>
<path d="M448.658 153.019H459.089C460.047 153.019 460.837 152.229 460.837 151.271C460.837 150.312 460.047 149.523 459.089 149.523H448.658C447.699 149.523 446.91 150.312 446.91 151.271C446.91 152.229 447.699 153.019 448.658 153.019Z" fill="#454751"/>
<path d="M506.339 142.024C508.03 110.561 511.301 84.455 511.301 84.2295L507.748 83.7784C507.692 84.0604 504.478 110.279 502.787 141.854L506.339 142.024Z" fill="#454751"/>
<path d="M287.962 158.262V160.066C287.962 161.081 288.808 161.871 289.766 161.871H294.897L295.292 156.401H289.766C288.808 156.401 287.962 157.247 287.962 158.262Z" fill="#CF102F"/>
<path d="M287.398 170.047V171.851C287.398 172.866 288.243 173.655 289.258 173.655H294.051L294.502 168.242H289.258C288.187 168.186 287.398 169.032 287.398 170.047Z" fill="#CF102F"/>
<path d="M309.276 70.6971H446.967V68.8928H310.009C309.784 69.4567 309.502 70.0769 309.276 70.6971Z" fill="#0A1239"/>
<path d="M221.388 58.7203C211.231 60.646 200.699 73.8165 223.132 104.078C237.119 122.338 242.624 120.171 261.262 125.398C267.793 120.618 260.817 113.947 260.817 113.947C260.817 113.947 244.334 110.199 237.529 98.9196C230.758 87.5717 226.688 57.7231 221.388 58.7203Z" fill="url(#paint11_linear_222_16493)"/>
<path d="M264.374 111.918C268.853 112.09 272.341 115.494 272.17 119.483C271.999 123.507 268.272 126.602 263.792 126.43C259.312 126.258 255.824 122.853 255.995 118.864C256.166 114.841 259.894 111.746 264.374 111.918Z" fill="#F4BE9C"/>
<path d="M185.55 269.07V278.561H196.116V269.655L185.55 269.07Z" fill="#E2B696"/>
<path d="M202.853 282H185.413C184.592 282 183.908 281.312 183.908 280.487V279.077C183.908 278.321 184.49 277.736 185.242 277.736H198.613C200.972 277.736 206.17 279.662 206.17 282H202.853Z" fill="#121727"/>
<path d="M228.33 264.875C228.33 265.219 231.066 277.736 231.066 277.736H240.333L238.486 264.222L228.33 264.875Z" fill="#E2B696"/>
<path d="M248.096 282H230.655C229.835 282 229.151 281.312 229.151 280.487V279.077C229.151 278.321 229.732 277.736 230.484 277.736H243.855C246.215 277.736 251.413 279.662 251.413 282H248.096Z" fill="#121727"/>
<path d="M227.954 137.571L241.462 270.205H228.433C222.038 244.311 207.812 226.601 216.019 207.929C218.481 202.289 198.031 163.775 196.869 156.106C195.706 148.438 196.151 133.754 196.151 133.754L227.954 137.571Z" fill="#262C49"/>
<path d="M219.541 137.571L197.86 270.239H184.831C185.31 244.311 175.803 226.601 188.969 207.929C192.936 202.289 182.711 163.775 183.6 156.106C184.455 148.438 188.832 133.754 188.832 133.754L219.541 137.571Z" fill="#2F3A61"/>
<path d="M188.08 137.159C188.08 137.159 202.511 140.804 210.137 140.804C217.763 140.804 228.432 137.743 228.432 137.743L226.928 65.7354C226.928 65.7354 223.2 51.9115 210.137 51.9115C197.074 51.9115 189.003 51.9115 189.003 51.9115L188.08 137.159Z" fill="white"/>
<path d="M211.779 51.9459C211.779 51.9459 221.183 65.701 221.935 86.4369C222.687 107.207 224.226 158.307 224.226 158.307C224.226 158.307 229.185 156.313 231.031 153.218C231.031 142.248 229.356 85.3021 228.364 76.6707C227.338 68.0738 228.432 54.4562 211.779 51.9459Z" fill="#B5C0D9"/>
<path d="M200.015 135.543C200.015 135.474 200.015 135.405 200.015 135.302C200.015 134.649 200.015 133.961 200.015 133.273C200.015 133.239 200.015 133.204 200.015 133.135C200.015 132.413 200.015 131.691 200.049 130.935C200.049 130.831 200.049 130.728 200.049 130.625C200.049 130.006 200.083 129.353 200.083 128.699C200.083 128.562 200.083 128.39 200.083 128.252C200.117 127.496 200.117 126.739 200.152 125.983C200.152 125.88 200.152 125.776 200.152 125.639C200.186 124.986 200.186 124.332 200.22 123.644C200.22 123.438 200.254 123.232 200.254 123.025C200.288 122.235 200.323 121.444 200.357 120.653C201.383 83.9954 198.066 66.8703 194.748 58.8923C193.723 55.9006 192.697 53.631 191.705 51.8772C189.927 51.8772 188.935 51.8772 188.935 51.8772C173.957 51.8772 185.447 108.376 185.242 116.698C185.037 125.02 181.104 145.034 182.198 152.461C182.198 152.461 199.091 159.924 200.323 157.998C200.562 155.797 200.049 149.332 199.946 139.635C200.049 138.328 200.015 136.953 200.015 135.543Z" fill="#B5C0D9"/>
<path d="M196.937 29.9377C196.937 32.2073 195.125 34.0299 192.868 34.0299C190.611 34.0299 188.798 32.2073 188.798 29.9377C188.798 27.6681 190.611 25.8456 192.868 25.8456C195.125 25.8456 196.937 27.6681 196.937 29.9377Z" fill="#F4BE9C"/>
<path d="M191.739 51.877C191.739 51.877 194.954 59.8893 202.374 59.8893C209.795 59.8893 210.513 51.877 210.513 51.877V46.822L195.637 35.7147L191.739 51.877Z" fill="#F4BE9C"/>
<path opacity="0.5" d="M198.681 37.9844L195.364 36.884L193.347 45.2059C196.63 51.2237 208.051 51.3957 210.514 51.3613V48.9541L210.001 46.4438L198.681 37.9844Z" fill="black"/>
<path d="M207.265 49.5387C200.5 49.5 193.757 43.4521 193.757 35.9555V16.8359H218.516V38.2595C218.481 44.4837 213.455 49.5387 207.265 49.5387Z" fill="#F4BE9C"/>
<path d="M217.627 17.0072L217.421 23.7128V23.7472V32.069C217.421 32.2754 217.421 32.5161 217.387 32.7224C217.353 33.0319 217.319 33.3758 217.353 33.4102C216.943 36.0924 214.651 38.1213 211.881 38.1213H207.607C201.622 38.1213 196.63 33.8916 195.364 28.252C195.296 27.3235 195.262 26.3951 195.159 25.4322C194.988 23.5409 194.92 22.5436 194.886 21.6152L193.757 21.8215V35.6798C193.757 43.3482 199.947 49.538 207.538 49.538C213.591 49.538 218.516 44.6206 218.516 38.4996V17.8325L217.627 17.0072Z" fill="#504543"/>
<path d="M195.33 20.9281C196.527 19.3463 198.408 18.2803 200.391 18.1083C202.374 17.902 204.358 18.5554 206.307 18.968C209.351 19.587 212.497 19.6214 215.54 19.0712C217.866 18.6585 220.157 17.8676 221.969 16.3545C223.748 14.8415 224.944 12.4343 224.637 10.096C224.397 8.34219 223.337 6.79474 222.038 5.55678C219.781 3.42474 216.771 2.15239 213.694 2.01484C207.88 1.73974 202.374 5.38484 196.527 5.00658C195.193 4.90341 193.825 4.59392 192.492 4.73148C190.577 4.9378 188.798 6.03821 187.67 7.58566C186.507 9.13311 185.96 11.0932 185.96 13.0189C185.96 15.6668 186.952 18.2115 187.943 20.6874C188.354 21.6846 188.73 22.6475 189.243 23.576C189.79 24.5388 190.303 25.5017 190.816 26.4989C191.842 28.459 193.141 30.763 193.996 32.7919C194.407 32.0354 194.167 30.8318 194.133 29.9377C194.099 29.078 193.962 28.2183 193.894 27.3242C193.757 25.1578 193.962 22.7163 195.33 20.9281Z" fill="#504543"/>
<path d="M187.499 52.0834C177.342 54.0091 168.656 73.8165 191.089 104.043C205.076 122.303 210.582 120.137 229.219 125.364C235.751 120.584 228.774 113.913 228.774 113.913C228.774 113.913 212.292 110.164 205.486 98.8851C198.715 87.5716 192.799 51.0862 187.499 52.0834Z" fill="url(#paint12_linear_222_16493)"/>
<g clip-path="url(#clip0_222_16493)">
<path d="M232.057 126.719H273.782V162.43H232.057V126.719ZM269.111 131.372H236.781V157.724H269.111V131.372Z" fill="#868FA4"/>
<path d="M234.419 146.274C236.676 146.274 238.513 144.444 238.513 142.195V133.15H267.327V141.568C267.327 143.816 269.164 145.646 271.421 145.646C273.677 145.646 275.514 143.816 275.514 141.568V124.941H230.325V142.143C230.325 144.444 232.162 146.274 234.419 146.274Z" fill="#191919"/>
<path d="M219.566 283H223.03C224.605 283 225.864 281.745 225.864 280.177V272.177C225.864 270.608 224.605 269.354 223.03 269.354H219.566C217.992 269.354 216.732 270.608 216.732 272.177V280.177C216.784 281.745 218.044 283 219.566 283Z" fill="#1F244D"/>
<path d="M281.97 283H285.434C287.008 283 288.268 281.745 288.268 280.177V272.177C288.268 270.608 287.008 269.354 285.434 269.354H281.97C280.395 269.354 279.136 270.608 279.136 272.177V280.177C279.188 281.745 280.448 283 281.97 283Z" fill="#1F244D"/>
<path d="M227.334 280.333H277.666C284.489 280.333 290 274.843 290 268.046V167.24C290 160.443 284.489 154.953 277.666 154.953H227.334C220.511 154.953 215 160.443 215 167.24V267.994C215 274.843 220.511 280.333 227.334 280.333Z" fill="#579D45"/>
<path d="M244.129 160.338C244.129 161.802 247.96 163.005 252.684 163.005C257.407 163.005 261.239 161.802 261.239 160.338C261.239 158.874 257.407 157.672 252.684 157.672C247.96 157.724 244.129 158.874 244.129 160.338Z" fill="white"/>
<path d="M223.345 154.953H229.643C230.168 156.469 230.43 158.142 230.43 159.868C230.43 168.286 223.607 175.083 215.157 175.083C215.105 175.083 215 175.083 214.948 175.083V163.266C215 158.665 218.726 154.953 223.345 154.953Z" fill="#87D972"/>
<path d="M290 163.266V175.031C281.602 174.978 274.885 168.181 274.885 159.816C274.885 158.09 275.147 156.469 275.672 154.901H281.655C286.274 154.953 290 158.665 290 163.266Z" fill="#87D972"/>
<path d="M223.345 280.177H229.643C230.168 278.66 230.43 276.987 230.43 275.262C230.43 266.844 223.607 260.047 215.157 260.047C215.105 260.047 215 260.047 214.948 260.047V271.811C215 276.464 218.726 280.177 223.345 280.177Z" fill="#87D972"/>
<path d="M290 271.863V260.099C281.602 260.151 274.885 266.948 274.885 275.314C274.885 277.039 275.147 278.66 275.672 280.229H281.655C286.274 280.177 290 276.464 290 271.863Z" fill="#87D972"/>
<g opacity="0.32">
<path opacity="0.32" d="M282.18 256.7C283.177 256.7 283.964 255.916 283.964 254.923V181.723C283.964 180.73 283.177 179.945 282.18 179.945C281.183 179.945 280.396 180.73 280.396 181.723V254.923C280.396 255.916 281.183 256.7 282.18 256.7Z" fill="#A5FF8E"/>
<path opacity="0.32" d="M262.761 266.426C263.758 266.426 264.545 265.641 264.545 264.648V171.998C264.545 171.005 263.758 170.22 262.761 170.22C261.764 170.22 260.976 171.005 260.976 171.998V264.648C260.976 265.641 261.764 266.426 262.761 266.426Z" fill="#A5FF8E"/>
<path opacity="0.32" d="M253.051 271.549C254.049 271.549 254.836 270.765 254.836 269.772V166.874C254.836 165.881 254.049 165.096 253.051 165.096C252.054 165.096 251.267 165.881 251.267 166.874V269.772C251.267 270.765 252.054 271.549 253.051 271.549Z" fill="#A5FF8E"/>
<path opacity="0.32" d="M223.922 256.7C222.925 256.7 222.138 255.916 222.138 254.923V181.723C222.138 180.73 222.925 179.945 223.922 179.945C224.92 179.945 225.707 180.73 225.707 181.723V254.923C225.707 255.916 224.867 256.7 223.922 256.7Z" fill="#A5FF8E"/>
<path opacity="0.32" d="M233.632 261.406C232.635 261.406 231.847 260.622 231.847 259.628V177.017C231.847 176.024 232.635 175.24 233.632 175.24C234.629 175.24 235.416 176.024 235.416 177.017V259.576C235.416 260.57 234.577 261.406 233.632 261.406Z" fill="#A5FF8E"/>
<path opacity="0.32" d="M244.024 266.426H242.659C242.029 266.426 241.557 265.955 241.557 265.328V171.318C241.557 170.691 242.029 170.22 242.659 170.22H244.024C244.654 170.22 245.126 170.691 245.126 171.318V265.38C245.126 265.955 244.601 266.426 244.024 266.426Z" fill="#A5FF8E"/>
<path opacity="0.32" d="M272.47 261.406C273.467 261.406 274.255 260.622 274.255 259.628V177.017C274.255 176.024 273.467 175.24 272.47 175.24C271.473 175.24 270.686 176.024 270.686 177.017V259.576C270.686 260.57 271.473 261.406 272.47 261.406Z" fill="#A5FF8E"/>
</g>
<path d="M226.284 134.666H279.031C280.868 134.666 282.337 133.202 282.337 131.372V127.294C282.337 125.464 280.868 124 279.031 124H226.284C224.447 124 222.978 125.464 222.978 127.294V131.32C222.978 133.15 224.447 134.666 226.284 134.666Z" fill="#191919"/>
</g>
<path d="M232.804 126.993C237.51 126.815 241.173 123.3 240.994 119.18C240.814 115.026 236.899 111.829 232.194 112.007C227.524 112.185 223.86 115.7 224.004 119.82C224.184 123.974 228.099 127.171 232.804 126.993Z" fill="#F4BE9C"/>
<path d="M265.733 114.006C269.331 114.148 272.132 116.96 271.995 120.256C271.858 123.58 268.864 126.136 265.267 125.994C261.669 125.852 258.868 123.04 259.005 119.744C259.142 116.42 262.136 113.864 265.733 114.006Z" fill="#F4BE9C"/>
<g clip-path="url(#clip1_222_16493)">
<path d="M109.139 83.8768C109.139 87.5623 105.943 90.5377 102.007 90.5377C98.0704 90.5377 94.8743 87.5623 94.8743 83.8768C94.8743 80.1913 98.0704 77.2158 102.007 77.2158C105.943 77.2158 109.139 80.1913 109.139 83.8768Z" fill="#232A43"/>
<path d="M82.7964 269.2C82.7964 269.2 82.2581 271.33 82.7964 273.257C83.3347 275.151 85.6897 279.208 85.6897 279.208L79.5329 276.841L77.6152 274.474L77.5815 269.132L82.0898 267.61L82.7964 269.2Z" fill="#E2B696"/>
<path d="M77.5478 273.46C77.5478 273.46 76.1348 273.392 76.0338 274.948C76.0002 275.522 76.0338 276.03 76.2357 276.469C76.4376 276.875 76.8413 277.179 77.5142 277.247C78.8936 277.416 81.3832 279.715 81.5851 280.391H87.9774C87.9774 280.391 86.2616 278.194 85.3195 278.194C84.4112 278.194 80.5421 279.005 77.5478 273.46Z" fill="#191919"/>
<path d="M76.4375 280.391V276.74H77.6823V280.391H76.4375Z" fill="#191919"/>
<path d="M109.039 269.064C109.039 269.064 108.769 271.296 109.274 273.223C109.812 275.151 112.134 279.208 112.134 279.208L105.977 276.841L104.059 274.474L104.026 269.132L108.534 267.61L109.039 269.064Z" fill="#E2B696"/>
<path d="M104.026 273.46C104.026 273.46 102.613 273.392 102.512 274.948C102.478 275.522 102.512 276.03 102.713 276.469C102.915 276.875 103.319 277.179 103.992 277.247C105.371 277.416 107.861 279.715 108.063 280.391H114.455C114.455 280.391 112.739 278.194 111.797 278.194C110.855 278.194 107.02 279.005 104.026 273.46Z" fill="#191919"/>
<path d="M102.915 280.391V276.74H104.16V280.391H102.915Z" fill="#191919"/>
<path d="M90.5344 51.4511C95.9972 51.4511 100.426 46.4252 100.426 40.2255C100.426 34.0258 95.9972 29 90.5344 29C85.0716 29 80.6431 34.0258 80.6431 40.2255C80.6431 46.4252 85.0716 51.4511 90.5344 51.4511Z" fill="#191919"/>
<path d="M113.008 40.0027C113.373 34.843 109.507 30.363 104.373 29.9963C99.2389 29.6296 94.7811 33.5151 94.4163 38.6749C94.0514 43.8346 97.9176 48.3146 103.052 48.6813C108.186 49.048 112.644 45.1624 113.008 40.0027Z" fill="#191919"/>
<path d="M75.3608 42.7614C74.2169 46.8189 76.4038 50.9439 80.1719 52.0259C83.94 53.0741 87.9436 50.6734 89.0539 46.616C90.1977 42.5586 88.0109 38.4335 84.2428 37.3515C80.4747 36.2696 76.5047 38.704 75.3608 42.7614Z" fill="#191919"/>
<path d="M89.423 75.5548C92.8259 72.1349 92.8259 66.5902 89.423 63.1703C86.0201 59.7504 80.5029 59.7504 77.1 63.1703C73.6971 66.5902 73.6971 72.1349 77.1 75.5548C80.5029 78.9747 86.0201 78.9747 89.423 75.5548Z" fill="#191919"/>
<path d="M80.3738 76.81C85.9853 76.81 90.5343 70.0433 90.5343 61.6961C90.5343 53.3489 85.9853 46.5822 80.3738 46.5822C74.7624 46.5822 70.2134 53.3489 70.2134 61.6961C70.2134 70.0433 74.7624 76.81 80.3738 76.81Z" fill="#191919"/>
<path d="M72.4675 77.5201C72.4675 81.2056 75.6637 84.1811 79.6 84.1811C83.5364 84.1811 86.7326 81.2056 86.7326 77.5201C86.7326 73.8346 83.5364 70.8592 79.6 70.8592C75.6637 70.8254 72.4675 73.8346 72.4675 77.5201Z" fill="#191919"/>
<path d="M106.28 90.0981C110.683 90.0981 114.253 85.7837 114.253 80.4617C114.253 75.1397 110.683 70.8253 106.28 70.8253C101.876 70.8253 98.3059 75.1397 98.3059 80.4617C98.3059 85.7837 101.876 90.0981 106.28 90.0981Z" fill="#191919"/>
<path d="M106.28 77.4863C111.074 77.4863 114.96 73.8531 114.96 69.3714C114.96 64.8897 111.074 61.2566 106.28 61.2566C101.486 61.2566 97.5996 64.8897 97.5996 69.3714C97.5996 73.8531 101.486 77.4863 106.28 77.4863Z" fill="#191919"/>
<path d="M96.5566 82.4566C101.35 82.4566 105.237 78.8235 105.237 74.3418C105.237 69.8601 101.35 66.2269 96.5566 66.2269C91.7627 66.2269 87.8765 69.8601 87.8765 74.3418C87.8765 78.8235 91.7627 82.4566 96.5566 82.4566Z" fill="#191919"/>
<path d="M100.156 55.2381C101.973 61.9328 106.885 66.396 111.158 65.2126C115.397 64.0292 117.382 57.6725 115.565 51.0116C113.749 44.3168 108.837 39.8537 104.564 41.0371C100.325 42.1867 98.3396 48.5433 100.156 55.2381Z" fill="#191919"/>
<path d="M106.381 136.556L109.173 269.91H104.026C104.026 269.91 93.0576 236.875 93.0576 223.959C93.0576 211.043 95.5136 213.714 94.4033 209.116C91.4763 197.045 82.4934 134.425 82.4934 134.425L106.381 136.556Z" fill="#2E4885"/>
<path d="M101.536 136.082L83.1326 269.774H77.1776C77.1776 269.774 71.3908 236.537 72.5347 225.549C73.6786 214.56 80.1046 210.536 80.2728 207.256C80.4074 203.977 70.2469 164.315 75.1589 147.071C77.8505 137.671 82.4933 134.425 82.4933 134.425L101.536 136.082Z" fill="#365DAB"/>
<path d="M102.545 75.8295C102.545 75.8295 111.124 77.892 114.119 92.0254C117.113 106.125 116.978 115.66 118.459 119.988C119.939 124.316 130.604 143.893 133.935 147.815C131.378 152.211 128.922 152.447 128.922 152.447C128.922 152.447 111.663 130.808 109.88 125.77C108.063 120.732 103.723 99.4302 103.184 93.5469C102.612 87.6298 102.545 75.8295 102.545 75.8295Z" fill="#F4BE9C"/>
<path d="M117.079 111.873C116.507 106.903 115.834 100.242 114.085 91.9915C111.091 77.892 102.511 75.7957 102.511 75.7957C102.511 75.7957 102.612 87.596 103.117 93.4793C103.453 97.1309 105.27 106.767 107.02 114.747C108.971 115.186 114.152 115.795 117.079 111.873Z" fill="url(#paint13_linear_222_16493)"/>
<path d="M117.214 113.124C117.18 112.718 117.113 112.279 117.079 111.873C115.128 114.443 112.235 115.051 109.947 115.051C108.769 115.051 107.726 114.882 107.053 114.747C107.121 115.085 107.188 115.423 107.289 115.727C107.962 115.863 108.904 115.964 109.947 115.964C112.975 115.998 115.464 115.017 117.214 113.124Z" fill="white"/>
<path d="M92.4856 74.1389C104.867 73.395 112.336 81.1379 112.773 94.2231C112.773 101.628 107.962 103.352 107.962 103.352L106.414 136.556C106.414 136.556 101.872 137.84 95.4799 137.84C89.0876 137.84 82.4934 134.425 82.4934 134.425C82.4934 134.425 84.8821 128.711 85.2858 122.321C85.7232 115.897 81.7196 100.512 80.7439 96.1166C79.7346 91.6873 75.7646 74.3079 92.4856 74.1389Z" fill="url(#paint14_linear_222_16493)"/>
<path d="M91.1399 62.3386L89.2559 74.4432C89.2559 74.4432 99.9546 88.6104 101.771 90.1995C102.545 83.2681 101.334 76.81 101.031 75.2209C100.728 73.6317 100.829 58.2473 100.829 58.2473L91.1399 62.3386Z" fill="#F4BE9C"/>
<path opacity="0.5" d="M100.829 69.4729C100.796 66.5989 100.796 63.2515 100.796 60.9523L93.3267 62.5414L90.9717 63.4544L90.2651 67.9175C91.7118 68.8304 95.9173 70.9944 100.829 69.4729Z" fill="black"/>
<path d="M97.263 68.1542C102.882 68.1542 107.423 63.5896 107.423 57.943V40.1918H85.7231V56.5229C85.7231 62.9472 90.9043 68.1542 97.263 68.1542Z" fill="#F4BE9C"/>
<path d="M100.426 49.1181C101.872 48.5095 103.285 47.7656 104.597 46.8865C104.362 47.0218 106.28 49.321 106.481 49.5239C107.255 50.3015 108.197 51.0454 109.24 51.4511C110.62 52.0259 111.158 50.3692 111.293 49.2196C111.595 46.3455 110.519 43.2687 109.577 40.6313C108.937 38.8393 108.231 37.0473 107.423 35.3229L84.5457 36.4049C84.5457 36.4049 85.7568 56.5905 85.8241 56.3539C86.5306 54.1561 93.7304 51.1806 94.5715 50.9778C96.5902 50.5044 98.5751 49.9296 100.426 49.1181Z" fill="#191919"/>
<path d="M86.046 60.704C87.8251 60.4138 89.0333 58.7291 88.7446 56.9411C88.4558 55.1531 86.7795 53.9389 85.0004 54.2291C83.2213 54.5193 82.0131 56.204 82.3019 57.992C82.5906 59.7799 84.2669 60.9942 86.046 60.704Z" fill="#F4BE9C"/>
<path d="M101.435 89.2527C98.8442 86.4125 91.1398 76.6409 89.3903 74.4431C89.0538 74.5107 88.751 74.5446 88.4482 74.6122C89.4912 75.9308 99.7526 88.9484 101.502 90.5376C101.569 90.6052 101.67 90.639 101.771 90.639C101.839 90.639 101.872 90.639 101.939 90.6052C102.074 90.5376 102.175 90.4023 102.209 90.2671C102.915 83.7414 102.31 77.7905 101.973 75.6265C101.67 75.4913 101.367 75.356 101.065 75.2546C101.3 76.5395 102.04 82.5918 101.435 89.2527Z" fill="white"/>
<path d="M85.3867 75.6942C85.3867 75.6942 89.7604 85.0939 89.4912 95.4065C89.2557 105.719 84.8147 117.384 84.7474 120.63C84.7138 123.876 86.5642 152.853 86.5642 152.853L81.0802 155.355C81.0802 155.355 75.3944 124.62 75.4953 119.819C75.5963 115.017 74.7888 91.7549 78.0523 83.1666C79.4653 79.4135 82.2914 77.3848 85.3867 75.6942Z" fill="#F4BE9C"/>
<path d="M83.9063 150.013C80.8111 150.148 78.4224 152.853 78.5569 156.065C78.6915 159.277 81.2821 161.813 84.3773 161.678C87.4726 161.543 89.8613 158.838 89.7267 155.626C89.5921 152.38 86.9679 149.877 83.9063 150.013Z" fill="#F4BE9C"/>
<path d="M171.582 217.231C171.582 217.231 170.304 226.529 174.947 235.794C179.051 243.976 182.449 252.192 181.507 254.153C177.773 259.496 184.535 272.716 185.141 278.735C186.318 278.701 187.462 279.107 188.976 278.227C188.808 270.045 189.212 260.645 189.245 254.052C189.313 247.459 188.337 219.293 188.337 219.293C182.618 219.327 171.582 217.231 171.582 217.231Z" fill="#2E4885"/>
<path d="M193.249 280.189L183.761 280.391L183.694 279.884C183.593 279.14 183.997 278.667 184.838 278.532C185.679 278.396 186.016 278.227 187.597 278.194C189.178 278.16 189.851 278.16 191.197 278.396C192.542 278.633 193.114 279.174 193.249 280.189Z" fill="#191919"/>
<path d="M188.505 159.48C187.361 161.881 185.275 163.267 183.829 162.591C182.382 161.915 182.079 159.379 183.223 156.978C184.367 154.577 186.453 153.191 187.899 153.867C189.38 154.544 189.649 157.046 188.505 159.48Z" fill="#232A43"/>
<path d="M165.425 217.231C165.425 217.231 161.96 226.529 164.45 235.794C166.637 243.976 168.756 252.192 167.377 254.153C162.398 259.496 166.267 272.716 165.493 278.735C166.704 278.701 167.747 279.107 169.429 278.227C171.179 270.045 173.534 260.645 175.149 254.052C176.73 247.459 181.373 219.598 181.373 219.598C175.62 219.631 165.425 217.231 165.425 217.231Z" fill="#365DAB"/>
<path d="M173.231 280.189L163.676 280.391L163.71 279.884C163.777 279.14 164.282 278.667 165.156 278.532C166.031 278.396 166.401 278.227 168.016 278.194C169.597 278.16 170.27 278.16 171.582 278.396C172.894 278.599 173.332 279.174 173.231 280.189Z" fill="#191919"/>
<path d="M197.555 217.839C197.555 217.839 193.653 204.45 187.9 199.344C182.18 194.239 169.732 188.829 169.732 188.829C169.732 188.829 173.063 182.675 179.018 181.593C184.973 180.511 191.096 187.037 196.041 194.34C200.987 201.643 204.082 216.825 204.082 216.825L197.555 217.839Z" fill="url(#paint15_linear_222_16493)"/>
<path d="M178.446 181.323C169.261 181.999 164.954 181.525 164.517 191.838C164.517 191.838 165.156 217.332 164.921 218.347C164.685 219.361 178.681 220.95 181.204 220.916C183.728 220.882 188.371 219.293 188.371 219.293C188.371 219.293 194.595 180.139 178.446 181.323Z" fill="#FFE7C7"/>
<path d="M200.516 215.675C203.073 215.304 205.529 217.467 205.966 220.511C206.404 223.554 204.654 226.292 202.097 226.664C199.541 227.036 197.085 224.872 196.647 221.829C196.21 218.786 197.926 216.047 200.516 215.675Z" fill="#F4BE9C"/>
<path d="M197.757 217.332L199.002 218.347L196.714 221.221C196.445 221.559 195.941 221.626 195.57 221.356C195.234 221.085 195.167 220.578 195.436 220.206L197.757 217.332Z" fill="#F4BE9C"/>
<path d="M138.914 156.64C138.914 156.64 144.264 169.522 150.521 173.952C156.779 178.381 169.16 182.202 170.438 182.168C171.717 182.134 166.839 192.92 165.93 192.582C165.022 192.244 148.704 186.53 142.985 179.801C137.266 173.072 132.555 158.33 132.555 158.33L138.914 156.64Z" fill="url(#paint16_linear_222_16493)"/>
<path d="M136.223 159.108C133.699 159.751 131.041 157.891 130.301 154.916C129.527 151.94 130.974 149.032 133.497 148.356C136.021 147.714 138.679 149.573 139.419 152.549C140.159 155.524 138.712 158.432 136.223 159.108Z" fill="#E2B696"/>
<path d="M138.78 157.147L137.434 156.268L139.385 153.157C139.621 152.785 140.125 152.684 140.495 152.921C140.866 153.157 141 153.664 140.765 154.036L138.78 157.147Z" fill="#E2B696"/>
<path d="M180.363 181.12C180.363 181.12 182.954 184.67 179.657 185.38C176.326 186.124 171.75 182.1 171.75 182.1L171.38 176.826L180.229 177.096L180.363 181.12Z" fill="#F4BE9C"/>
<path d="M181.877 184.501C182.248 183.52 181.877 182.405 181.474 181.627C181.171 181.525 180.868 181.458 180.532 181.39C181.07 182.235 182.382 184.771 179.623 185.38C179.354 185.448 179.051 185.481 178.782 185.481C175.586 185.481 171.717 182.1 171.717 182.1V181.897C171.482 181.931 171.246 181.965 171.01 182.033V182.168C171.01 182.337 171.111 182.54 171.246 182.641C171.414 182.776 175.351 186.191 178.782 186.191C179.119 186.191 179.455 186.158 179.792 186.09C181.137 185.786 181.676 185.076 181.877 184.501Z" fill="white"/>
<path opacity="0.4" d="M180.296 179.361L180.229 177.096L171.38 176.859L171.515 178.787C173.197 179.395 177.705 180.815 180.296 179.361Z" fill="black"/>
<path d="M177.907 179.023C182.618 179.023 186.419 175.203 186.419 170.469V155.355C186.419 154.848 186.016 154.442 185.511 154.442H167.209C166.704 154.442 166.3 154.848 166.3 155.355V167.358C166.3 173.783 171.515 179.023 177.907 179.023Z" fill="#F4BE9C"/>
<path d="M189.065 155.498C189.416 152.287 187.11 149.398 183.915 149.046C180.72 148.693 177.845 151.011 177.494 154.222C177.144 157.433 179.45 160.322 182.645 160.674C185.84 161.027 188.715 158.709 189.065 155.498Z" fill="#685451"/>
<path d="M179.22 156.403C182.36 156.403 184.905 153.845 184.905 150.689C184.905 147.533 182.36 144.975 179.22 144.975C176.079 144.975 173.534 147.533 173.534 150.689C173.534 153.845 176.079 156.403 179.22 156.403Z" fill="#685451"/>
<path d="M172.995 156.403C176.136 156.403 178.681 153.845 178.681 150.689C178.681 147.533 176.136 144.975 172.995 144.975C169.855 144.975 167.31 147.533 167.31 150.689C167.31 153.845 169.855 156.403 172.995 156.403Z" fill="#685451"/>
<path d="M169.665 156.809C167.881 159.514 165.022 160.765 163.34 159.649C161.624 158.5 161.691 155.389 163.508 152.684C165.291 149.979 168.151 148.728 169.833 149.844C171.549 150.993 171.481 154.104 169.665 156.809Z" fill="#685451"/>
<path d="M167.848 162.523C167.612 164.146 166.132 165.262 164.551 165.025C162.936 164.789 161.826 163.301 162.061 161.712C162.297 160.089 163.777 158.973 165.358 159.21C166.939 159.446 168.083 160.934 167.848 162.523Z" fill="#685451"/>
<path d="M163.003 164.281C164.484 165.363 166.233 166.547 167.074 168.204C167.31 168.237 167.511 167.967 167.612 167.73C167.915 167.122 168.117 166.445 168.252 165.769C168.353 165.161 168.285 164.586 168.453 163.977C168.79 162.794 169.597 161.779 170.506 160.968C171.65 159.92 172.995 159.074 174.005 157.891C174.207 158.364 174.711 158.635 175.182 158.838C177.033 159.717 179.051 160.258 181.104 160.461C182.752 160.63 184.468 160.697 185.814 159.582C186.991 158.601 187.698 156.944 187.765 155.423L179.22 151.501L175.384 150.689L166.3 153.834L164.484 162.117L163.003 164.281Z" fill="#685451"/>
<path d="M163.676 167.189C163.676 168.44 164.685 169.421 165.897 169.421C167.141 169.421 168.117 168.406 168.117 167.189C168.117 165.938 167.108 164.958 165.897 164.958C164.685 164.924 163.676 165.938 163.676 167.189Z" fill="#F4BE9C"/>
<path d="M132.354 145.313C129.258 145.448 126.87 148.153 127.004 151.365C127.139 154.577 129.729 157.113 132.825 156.978C135.92 156.843 138.309 154.138 138.174 150.926C138.039 147.714 135.449 145.178 132.354 145.313Z" fill="#F4BE9C"/>
<path d="M85.3867 75.6942C82.3251 77.3848 79.4654 79.4135 78.086 83.1666C75.6636 89.6247 75.4954 104.333 75.5291 113.293C75.5291 113.293 79.4991 117.35 86.1942 114.105C87.54 108.965 89.3567 101.898 89.5249 95.4065C89.7268 85.0939 85.3867 75.6942 85.3867 75.6942Z" fill="url(#paint17_linear_222_16493)"/>
<path d="M81.1141 115.355C77.5142 115.355 75.4956 113.293 75.4956 113.293C75.4956 113.699 75.4956 114.104 75.4956 114.51C76.4376 115.22 78.3553 116.302 81.1141 116.302C82.6617 116.302 84.243 115.93 85.8579 115.254C85.9588 114.882 86.0598 114.51 86.1607 114.104C84.243 115.051 82.5608 115.355 81.1141 115.355Z" fill="white"/>
<path d="M24.7604 272.615C23.4483 275.658 24.8277 279.174 27.8557 280.493C30.8836 281.811 34.3826 280.425 35.6947 277.382C37.0068 274.339 35.6274 270.823 32.5995 269.504C29.6052 268.185 26.0725 269.572 24.7604 272.615Z" fill="#191919"/>
<path d="M20.3867 269.233L27.0818 272.141C31.3546 274.001 36.3339 272.04 38.1843 267.746L63.1144 210.063C64.9648 205.769 63.0135 200.764 58.7407 198.905L52.0456 196.031C44.1393 192.582 34.9545 196.234 31.5228 204.179L12.3121 248.608C8.84682 256.554 12.4804 265.785 20.3867 269.233Z" fill="#579D45"/>
<path d="M58.9425 203.571L59.0435 203.638C59.75 204.01 60.6247 203.706 60.9948 202.996L84.1082 157.519C84.4783 156.809 84.1755 155.93 83.4689 155.558L83.368 155.49C82.6615 155.118 81.7867 155.423 81.4167 156.133L58.3033 201.61C57.9332 202.32 58.236 203.199 58.9425 203.571Z" fill="#579D45"/>
<path d="M23.4351 270.592L24.6077 271.104L56.2539 197.884L55.0813 197.372L23.4351 270.592Z" fill="white"/>
<path d="M36.1657 240.595L37.747 241.271C38.6554 241.677 39.6983 241.237 40.102 240.358L44.4758 230.215C44.8795 229.302 44.4421 228.253 43.5674 227.848L41.9861 227.171C41.0777 226.766 40.0348 227.205 39.631 228.084L35.2573 238.228C34.8536 239.141 35.2573 240.223 36.1657 240.595Z" fill="white"/>
</g>
<path d="M213.1 41.0443C213.1 41.2833 211.666 41.8808 209.933 41.9405C208.201 42.0003 206.767 41.4028 206.767 41.104C206.767 40.9248 208.201 40.9845 209.933 40.9248C211.666 40.865 213.1 40.7455 213.1 41.0443Z" fill="white"/>
<path d="M105.047 58.1406C102.18 58.3304 96.3982 58.71 96.2043 58.71L97.0119 63.1981L104.199 62.9971L105.047 58.1406Z" fill="#F4BE9C"/>
<path d="M98.6678 60.6605C98.6741 60.8939 99.653 61.4222 100.834 61.3903C102.014 61.3583 102.961 60.6903 102.953 60.3985C102.948 60.1943 101.988 60.3663 100.807 60.3982C99.6253 60.401 98.6607 60.3979 98.6678 60.6605Z" fill="white"/>
<path d="M185.801 170.907C183.544 171.087 178.992 171.448 178.839 171.448L179.475 175.707L185.133 175.517L185.801 170.907Z" fill="#F4BE9C"/>
<path d="M180.621 173.3C180.621 173.476 181.327 173.893 182.191 173.893C183.054 173.893 183.76 173.41 183.76 173.191C183.76 173.037 183.054 173.147 182.191 173.147C181.327 173.125 180.621 173.103 180.621 173.3Z" fill="white"/>
<path d="M101.256 57.8073L101.207 57.6076C101.481 57.5576 101.606 57.5327 101.88 57.4578C102.354 57.3579 102.578 57.0333 102.528 56.6088C102.478 56.1844 102.379 55.71 102.279 55.2106C102.104 54.3617 101.93 53.4629 101.93 52.7388C101.93 52.1396 102.503 51.5154 103.426 51.1908C104.598 50.7663 106.07 51.1159 106.743 51.5403L106.643 51.7151C105.995 51.3406 104.623 50.991 103.526 51.3905C102.603 51.7401 102.179 52.3143 102.179 52.7388C102.179 53.4379 102.354 54.3368 102.503 55.1857C102.603 55.685 102.703 56.1594 102.753 56.6088C102.828 57.1581 102.503 57.5576 101.93 57.7074C101.655 57.7324 101.531 57.7574 101.256 57.8073Z" fill="#252740"/>
<path d="M94.174 51.8899L94.0493 51.6652C94.9222 51.1908 96.4434 50.9161 97.017 50.9161C98.4634 50.9161 99.436 51.4904 99.6854 51.6652L99.5607 51.8649C99.3113 51.6901 98.3886 51.1658 97.017 51.1658C96.5182 51.1908 94.997 51.4405 94.174 51.8899Z" fill="#252740"/>
<path d="M97.915 53.3129C97.915 53.6875 97.6906 53.9871 97.4162 53.9871C97.1419 53.9871 96.9175 53.6875 96.9175 53.3129C96.9175 52.9384 97.1419 52.6388 97.4162 52.6388C97.6906 52.6388 97.915 52.9384 97.915 53.3129Z" fill="#252740"/>
<path d="M97.2415 52.8637C97.3412 52.9885 97.3662 53.1633 97.2914 53.2133C97.2165 53.2882 97.0669 53.2133 96.9672 53.0884C96.8674 52.9636 96.8425 52.7888 96.9173 52.7389C96.9672 52.664 97.1168 52.7389 97.2415 52.8637Z" fill="white"/>
<path d="M105.047 53.3129C105.047 53.6875 104.823 53.9871 104.548 53.9871C104.274 53.9871 104.05 53.6875 104.05 53.3129C104.05 52.9384 104.274 52.6388 104.548 52.6388C104.823 52.6388 105.047 52.9384 105.047 53.3129Z" fill="#252740"/>
<path d="M104.374 52.8637C104.474 52.9885 104.498 53.1633 104.424 53.2133C104.349 53.2882 104.199 53.2133 104.099 53.0884C104 52.9636 103.975 52.7888 104.05 52.7389C104.124 52.664 104.249 52.7389 104.374 52.8637Z" fill="white"/>
<path d="M95.1467 53.438V53.2133C95.7951 53.2133 96.0944 53.0385 96.3687 52.8637C96.4435 52.8138 96.4934 52.7888 96.5682 52.7389C97.6156 52.1646 98.264 52.7389 98.6381 53.2133L98.4635 53.3631C98.0895 52.9136 97.5657 52.4642 96.668 52.9386C96.6181 52.9636 96.5433 53.0135 96.4934 53.0385C96.1941 53.2133 95.845 53.438 95.1467 53.438Z" fill="#252740"/>
<path d="M105.695 53.4379C105.496 53.4379 105.296 53.2631 105.097 53.0883C104.972 52.9885 104.848 52.8886 104.748 52.8387C104.374 52.6389 103.925 52.8387 103.576 53.363L103.376 53.2381C103.8 52.6139 104.349 52.3892 104.848 52.6389C104.972 52.7138 105.097 52.8137 105.247 52.9136C105.396 53.0384 105.596 53.1882 105.695 53.1882V53.4379Z" fill="#252740"/>
<path d="M209.025 34.5275L208.995 34.1581C209.143 34.1461 209.29 34.134 209.438 34.1219C210.325 34.0495 211.359 33.9651 211.908 33.3997C212.179 33.0801 212.137 32.563 211.775 31.7746L211.683 31.559C211.137 30.3394 209.892 27.8384 210.202 26.1771C210.363 25.4203 210.906 24.781 211.411 24.5911C212.926 24.0212 214.594 24.4055 216.137 25.0974L216.014 25.405C214.476 24.7869 212.23 24.5986 211.108 25.4338C210.899 25.5996 210.627 25.9193 210.584 26.2947C210.341 27.8761 211.506 30.3092 212.046 31.455L212.138 31.6705C212.586 32.6007 212.566 33.2715 212.227 33.6711C211.611 34.3163 210.503 34.4068 209.542 34.4852C209.315 34.4295 209.167 34.4415 209.025 34.5275Z" fill="#191919"/>
<path d="M204.499 28.2787C204.548 28.8697 204.214 29.3431 203.771 29.3792C203.328 29.4154 202.916 28.9285 202.868 28.3376C202.82 27.7466 203.153 27.2732 203.596 27.237C204.119 27.2687 204.451 27.6877 204.499 28.2787Z" fill="#191919"/>
<path d="M215.019 27.7914C215.067 28.3824 214.734 28.8557 214.291 28.8919C213.847 28.9281 213.436 28.4412 213.388 27.8503C213.339 27.2593 213.672 26.7859 214.116 26.7497C214.559 26.7135 214.97 27.2004 215.019 27.7914Z" fill="#191919"/>
<path d="M213.476 27.4135C213.656 27.5583 213.841 27.6393 213.916 27.5178C213.991 27.3963 213.945 27.1996 213.766 27.0549C213.586 26.9102 213.401 26.8292 213.326 26.9506C213.256 27.0085 213.303 27.2052 213.476 27.4135Z" fill="white"/>
<path d="M203.309 27.4737C203.422 27.6167 203.485 27.7639 203.388 27.8226C203.291 27.8812 203.136 27.8432 203.023 27.7001C202.91 27.5571 202.847 27.4099 202.944 27.3513C203.04 27.2926 203.196 27.3307 203.309 27.4737Z" fill="white"/>
<path d="M198.385 26.2496L198.207 25.8923C199.784 25.1686 201.237 24.7525 203.016 24.6816C204.647 24.6227 205.853 24.8217 206.948 25.4759L206.75 25.7895C205.809 25.197 204.677 24.9921 203.046 25.0509C201.273 25.1957 199.888 25.532 198.385 26.2496Z" fill="#191919"/>
<path d="M201.249 28.5442L201.003 28.2669C202.853 26.3311 204.408 27.1707 205.036 27.5657L204.838 27.8793C204.205 27.4104 202.895 26.8482 201.249 28.5442Z" fill="#191919"/>
<path d="M212.869 27.8926L212.556 27.6951C213.068 26.6866 213.721 26.4845 214.17 26.5222C214.915 26.5357 215.48 27.0844 215.572 27.3L215.215 27.4779C215.129 27.3362 214.65 26.9292 214.126 26.8976C213.677 26.8599 213.258 27.1916 212.869 27.8926Z" fill="#191919"/>
<path d="M182.015 170.411L181.997 170.187C182.087 170.18 182.176 170.173 182.266 170.165C182.802 170.121 183.428 170.07 183.76 169.728C183.924 169.535 183.899 169.222 183.68 168.745L183.624 168.614C183.294 167.876 182.54 166.362 182.728 165.357C182.825 164.899 183.154 164.512 183.46 164.397C184.377 164.052 185.386 164.284 186.32 164.703L186.245 164.889C185.315 164.515 183.955 164.401 183.276 164.907C183.149 165.007 182.985 165.201 182.959 165.428C182.812 166.385 183.517 167.858 183.844 168.551L183.9 168.682C184.171 169.245 184.159 169.651 183.953 169.892C183.58 170.283 182.91 170.338 182.328 170.385C182.191 170.351 182.101 170.359 182.015 170.411Z" fill="#25263F"/>
<path d="M179.276 166.629C179.306 166.987 179.104 167.274 178.836 167.295C178.567 167.317 178.318 167.023 178.289 166.665C178.259 166.307 178.461 166.02 178.73 165.998C179.046 166.017 179.247 166.271 179.276 166.629Z" fill="#25263F"/>
<path d="M185.643 166.334C185.672 166.692 185.471 166.979 185.202 167.001C184.934 167.022 184.685 166.728 184.655 166.37C184.626 166.012 184.828 165.725 185.096 165.703C185.365 165.681 185.614 165.976 185.643 166.334Z" fill="#25263F"/>
<path d="M184.71 166.105C184.819 166.193 184.931 166.242 184.977 166.168C185.022 166.094 184.994 165.975 184.885 165.887C184.777 165.799 184.664 165.75 184.619 165.824C184.576 165.859 184.604 165.978 184.71 166.105Z" fill="white"/>
<path d="M178.556 166.142C178.625 166.229 178.663 166.318 178.604 166.353C178.545 166.389 178.451 166.366 178.382 166.279C178.314 166.192 178.275 166.103 178.334 166.067C178.393 166.032 178.487 166.055 178.556 166.142Z" fill="white"/>
<path d="M175.575 165.401L175.468 165.184C176.422 164.746 177.302 164.494 178.378 164.452C179.366 164.416 180.096 164.536 180.758 164.932L180.638 165.122C180.069 164.763 179.384 164.639 178.397 164.675C177.324 164.763 176.485 164.966 175.575 165.401Z" fill="#25263F"/>
<path d="M177.309 166.789L177.16 166.622C178.28 165.45 179.221 165.958 179.601 166.197L179.481 166.387C179.098 166.103 178.305 165.763 177.309 166.789Z" fill="#25263F"/>
<path d="M184.341 166.395L184.151 166.276C184.462 165.665 184.857 165.543 185.129 165.566C185.58 165.574 185.923 165.906 185.978 166.037L185.762 166.144C185.71 166.059 185.42 165.812 185.103 165.793C184.831 165.77 184.577 165.971 184.341 166.395Z" fill="#25263F"/>
<g clip-path="url(#clip2_222_16493)">
<path d="M365.423 103.355C366.418 103.35 367.114 103.246 368.211 103C370.178 102.639 372.189 102.042 374.134 101.331L374.936 101.045L374.682 99.8319L372.854 100.535C371.305 101.044 369.75 101.437 368.19 101.772C365.585 102.232 362.957 102.343 362.518 100.966C362.367 100.449 363.095 99.9333 363.947 99.5271C364.687 99.1868 365.43 98.9048 366.118 98.6848C366.231 98.619 366.348 98.6115 366.519 98.5419C367.834 98.0475 369.269 97.6038 370.537 97.2881C371.513 96.991 372.439 96.8144 373.422 96.634C375.572 96.3786 376.631 97.3644 377.759 98.5214C378.698 99.4564 379.757 100.442 381.493 101.033L382.114 99.7636C381.395 99.5171 380.669 99.1539 380.052 98.6666C386.915 96.1172 391.738 94.6359 397.149 97.7424C399.641 99.1629 404.624 97.4371 407.035 98.5116C409.446 99.586 410.514 103.44 408.888 105.477C408.67 105.725 408.153 105.876 407.81 106.015L406.204 106.528C406.236 106.116 406.21 105.708 406.187 105.358C406.088 104.72 405.875 104.149 405.492 103.646C405.108 103.144 404.674 102.762 404.13 102.504C403.586 102.247 402.934 102.113 402.292 102.154C401.651 102.195 400.959 102.357 400.332 102.632C399.706 102.906 399.091 103.356 398.596 103.856C398.101 104.356 397.672 104.969 397.364 105.633C397.055 106.297 396.921 106.95 396.908 107.653C396.891 108.298 396.994 108.994 397.265 109.562L396.161 109.692L390.886 111.437L389.451 111.88L380.446 114.802C380.478 114.39 380.51 113.978 380.43 113.632C380.234 112.415 379.587 111.461 378.613 110.88C377.639 110.298 376.407 110.26 375.143 110.634C373.937 111.005 372.823 111.896 372.074 112.998C371.326 114.1 371 115.409 371.137 116.63C371.145 116.747 369.95 117.292 369.721 117.365C368.084 117.412 368.416 111.653 369.137 107.391C370.2 108.435 372.023 108.552 373.881 108.315C376.202 107.99 378.661 107.071 379.972 106.518L379.664 105.367C378.407 105.857 376.065 106.769 373.919 107.083C372.177 107.312 370.529 107.184 369.758 106.121C372.313 105.781 375.052 104.668 376.192 104.185C376.363 104.115 376.476 104.049 376.592 104.042L376.393 102.766C376.335 102.77 376.164 102.84 375.938 102.971C373.938 103.744 366.69 106.67 365.423 103.355ZM397.78 112.106L389.405 114.811L389.21 113.594L397.581 110.83L397.78 112.106ZM372.088 120.492L363.717 123.256L363.522 122.039L371.893 119.275L372.088 120.492ZM367.717 118.08L359.346 120.843L359.151 119.626L367.518 116.805L367.717 118.08ZM401.147 103.457C401.777 103.241 402.477 103.196 403.075 103.392C403.673 103.588 404.162 103.908 404.487 104.414C404.812 104.92 404.97 105.554 404.953 106.199C404.936 106.844 404.69 107.562 404.319 108.172C403.948 108.781 403.395 109.285 402.773 109.618C402.15 109.951 401.458 110.112 400.867 110.033C400.222 110.016 399.678 109.758 399.24 109.318C398.806 108.936 398.535 108.368 398.435 107.731C398.351 107.326 398.379 106.856 398.528 106.436C398.614 105.962 398.821 105.539 399.09 105.171C399.356 104.744 399.687 104.43 400.076 104.112C400.295 103.864 400.688 103.604 401.147 103.457ZM375.287 111.972C375.918 111.756 376.617 111.711 377.215 111.906C377.813 112.102 378.302 112.422 378.628 112.928C378.953 113.434 379.111 114.068 379.094 114.713C379.077 115.358 378.83 116.077 378.46 116.686C378.089 117.295 377.536 117.799 376.913 118.132C376.291 118.465 375.598 118.627 375.008 118.548C374.363 118.531 373.819 118.273 373.381 117.833C372.946 117.451 372.676 116.883 372.576 116.245C372.492 115.84 372.52 115.37 372.669 114.951C372.755 114.477 372.962 114.054 373.231 113.685C373.496 113.258 373.828 112.944 374.217 112.626C374.431 112.32 374.887 112.115 375.287 111.972Z" fill="white"/>
<path d="M357.065 142.713C354.616 142.871 352.697 142.174 351.258 140.745C349.816 139.256 349.222 137.304 349.527 134.767C349.836 132.287 350.871 130.172 352.694 128.473C354.517 126.775 356.626 125.878 359.075 125.721C362.049 125.529 364.176 126.739 365.336 129.299L362.222 130.964C361.944 130.279 361.499 129.722 360.889 129.351C360.276 128.922 359.561 128.734 358.745 128.787C357.287 128.88 356.038 129.488 354.936 130.554C353.833 131.62 353.216 132.948 353.026 134.541C352.832 136.076 353.148 137.344 353.973 138.345C354.795 139.287 355.937 139.741 357.394 139.647C358.211 139.595 359.012 139.309 359.686 138.856C360.417 138.399 361.021 137.774 361.443 137.045L364.219 138.33C362.401 141.023 360.039 142.522 357.065 142.713Z" fill="white"/>
<path d="M375.939 141.206L372.79 141.409L372.944 140.169C371.959 141.228 370.651 141.839 368.96 141.948C367.911 142.015 366.955 141.725 366.21 141.071C365.466 140.416 365.114 139.502 365.265 138.204C365.415 136.906 365.939 135.936 366.83 135.234C367.722 134.533 368.807 134.112 369.861 134.102C371.552 133.994 372.748 134.385 373.453 135.335L373.64 133.684C373.679 133.388 373.66 133.097 373.587 132.867C373.514 132.638 373.324 132.416 373.138 132.252C372.707 131.928 372.113 131.791 371.296 131.844C370.013 131.926 368.706 132.537 367.654 133.483L366.703 131.436C368.257 130.107 370.082 129.345 372.123 129.214C373.639 129.117 374.886 129.388 375.747 130.035C376.608 130.682 376.975 131.83 376.785 133.423L375.939 141.206ZM370.516 139.74C371.682 139.665 372.593 139.255 373.131 138.518L373.329 137.041C372.875 136.368 372.095 136.067 370.929 136.142C370.346 136.179 369.77 136.333 369.268 136.717C369.046 136.907 368.882 137.093 368.722 137.337C368.562 137.582 368.519 137.819 368.479 138.114C368.436 138.351 368.455 138.643 368.524 138.814C368.598 139.043 368.726 139.211 368.97 139.371C369.397 139.636 369.933 139.777 370.516 139.74Z" fill="white"/>
<path d="M381.089 141.167L377.998 141.366L379.434 129.095L382.524 128.896L382.338 130.548C382.883 129.927 383.495 129.419 384.172 129.024C384.849 128.63 385.596 128.406 386.296 128.361L385.915 131.547C385.674 131.445 385.383 131.464 385.091 131.483C384.508 131.521 383.936 131.733 383.368 132.004C382.746 132.337 382.298 132.658 382.033 133.085L381.089 141.167Z" fill="white"/>
<path d="M391.293 140.511L388.261 140.706L389.359 131.384L387.493 131.504L387.842 128.73L389.708 128.61L389.783 127.961C389.934 126.663 390.395 125.638 391.221 124.824C392.047 124.009 393.015 123.596 394.123 123.524C394.881 123.476 395.592 123.605 396.256 123.914L395.353 126.256C395.108 126.096 394.751 126.002 394.401 126.024C394.226 126.035 393.993 126.05 393.826 126.178C393.654 126.248 393.487 126.376 393.323 126.562C393.05 126.872 392.843 127.295 392.819 127.824L392.744 128.473L395.076 128.323L394.728 131.097L392.395 131.247L391.293 140.511Z" fill="white"/>
<path d="M401.062 123.078L397.913 123.28L395.903 140.273L399.052 140.07L401.062 123.078Z" fill="white"/>
<path d="M400.123 145.798L400.934 142.935C401.234 143.033 401.587 143.069 401.937 143.046C403.212 142.847 404.213 142.022 404.787 140.931L405.365 139.898L402.077 127.931L405.342 127.721L407.391 135.904L411.407 127.331L414.731 127.117L407.573 141.454C406.741 143.089 405.985 144.074 404.634 144.922C403.848 145.441 402.755 145.746 401.647 145.817C401.126 145.909 400.597 145.885 400.123 145.798Z" fill="white"/>
</g>
<defs>
<linearGradient id="paint0_linear_222_16493" x1="687.401" y1="191.864" x2="687.401" y2="232.02" gradientUnits="userSpaceOnUse">
<stop offset="0.0298165" stop-color="#152159"/>
<stop offset="1" stop-color="#0A123B"/>
</linearGradient>
<linearGradient id="paint1_linear_222_16493" x1="637.482" y1="191.912" x2="637.067" y2="201.741" gradientUnits="userSpaceOnUse">
<stop offset="0.0298165" stop-color="#EB3B00"/>
<stop offset="1" stop-color="#FF0000"/>
</linearGradient>
<linearGradient id="paint2_linear_222_16493" x1="688.476" y1="220.555" x2="686.92" y2="257.376" gradientUnits="userSpaceOnUse">
<stop offset="0.0298165" stop-color="#060D30"/>
<stop offset="1" stop-color="#1E2859"/>
</linearGradient>
<linearGradient id="paint3_linear_222_16493" x1="456.664" y1="191.864" x2="456.664" y2="232.02" gradientUnits="userSpaceOnUse">
<stop offset="0.0298165" stop-color="#111C4E"/>
<stop offset="1" stop-color="#060D30"/>
</linearGradient>
<linearGradient id="paint4_linear_222_16493" x1="294.813" y1="191.864" x2="294.813" y2="232.02" gradientUnits="userSpaceOnUse">
<stop offset="0.0298165" stop-color="#0C174E"/>
<stop offset="1" stop-color="#1E2859"/>
</linearGradient>
<linearGradient id="paint5_linear_222_16493" x1="596.235" y1="82.3444" x2="596.235" y2="119.104" gradientUnits="userSpaceOnUse">
<stop stop-color="#81CFE3"/>
<stop offset="1" stop-color="#4597CC"/>
</linearGradient>
<linearGradient id="paint6_linear_222_16493" x1="502.997" y1="93.4732" x2="502.997" y2="132.032" gradientUnits="userSpaceOnUse">
<stop stop-color="#36AFCF"/>
<stop offset="1" stop-color="#276DB3"/>
</linearGradient>
<linearGradient id="paint7_linear_222_16493" x1="486.491" y1="107.885" x2="486.491" y2="39.0469" gradientUnits="userSpaceOnUse">
<stop stop-color="#E0F0FF"/>
<stop offset="1" stop-color="#68BDD4"/>
</linearGradient>
<linearGradient id="paint8_linear_222_16493" x1="592.57" y1="167.636" x2="585.393" y2="234.765" gradientUnits="userSpaceOnUse">
<stop offset="0.2179" stop-color="#8F92A8"/>
<stop offset="0.9771" stop-color="#454751"/>
</linearGradient>
<linearGradient id="paint9_linear_222_16493" x1="334.868" y1="169.611" x2="327.905" y2="234.74" gradientUnits="userSpaceOnUse">
<stop offset="0.2179" stop-color="#8F92A8"/>
<stop offset="0.9771" stop-color="#454751"/>
</linearGradient>
<linearGradient id="paint10_linear_222_16493" x1="598.716" y1="85.7319" x2="580.582" y2="133.454" gradientUnits="userSpaceOnUse">
<stop stop-color="#D6EBFF"/>
<stop offset="1" stop-color="#68BDD4"/>
</linearGradient>
<linearGradient id="paint11_linear_222_16493" x1="236.94" y1="58.6959" x2="236.94" y2="125.398" gradientUnits="userSpaceOnUse">
<stop offset="0.00294886" stop-color="#9099AE"/>
<stop offset="1" stop-color="#B5C0D9"/>
</linearGradient>
<linearGradient id="paint12_linear_222_16493" x1="204.506" y1="52.0634" x2="204.506" y2="125.364" gradientUnits="userSpaceOnUse">
<stop stop-color="#B5C0D9"/>
<stop offset="0.942708" stop-color="#A7AFC1"/>
</linearGradient>
<linearGradient id="paint13_linear_222_16493" x1="118.893" y1="101.921" x2="103.816" y2="108.256" gradientUnits="userSpaceOnUse">
<stop stop-color="#E4BF40"/>
<stop offset="1" stop-color="#F3AA3D"/>
</linearGradient>
<linearGradient id="paint14_linear_222_16493" x1="66.3136" y1="90.2571" x2="107.668" y2="111.349" gradientUnits="userSpaceOnUse">
<stop stop-color="#E4BF40"/>
<stop offset="1" stop-color="#F3AA3D"/>
</linearGradient>
<linearGradient id="paint15_linear_222_16493" x1="219.5" y1="203.5" x2="173" y2="195.5" gradientUnits="userSpaceOnUse">
<stop stop-color="#FFE7C7"/>
<stop offset="1" stop-color="#D1BA9A"/>
</linearGradient>
<linearGradient id="paint16_linear_222_16493" x1="151.603" y1="156.64" x2="151.603" y2="192.59" gradientUnits="userSpaceOnUse">
<stop stop-color="#FFE7C7"/>
<stop offset="1" stop-color="#FDE8CC"/>
</linearGradient>
<linearGradient id="paint17_linear_222_16493" x1="69.9127" y1="85.7544" x2="89.5646" y2="92.5563" gradientUnits="userSpaceOnUse">
<stop stop-color="#E4BF40"/>
<stop offset="1" stop-color="#F3AA3D"/>
</linearGradient>
<clipPath id="clip0_222_16493">
<rect width="75" height="159" fill="white" transform="translate(215 124)"/>
</clipPath>
<clipPath id="clip1_222_16493">
<rect width="195" height="252" fill="white" transform="translate(11 29)"/>
</clipPath>
<clipPath id="clip2_222_16493">
<rect width="65.677" height="51.0691" fill="white" transform="translate(347 98.2168) rotate(-3.68116)"/>
</clipPath>
</defs>
</svg>
