<svg width="80" height="54" viewBox="0 0 80 54" fill="none" xmlns="http://www.w3.org/2000/svg">
<g clip-path="url(#clip0_137_551)">
<path d="M39.9998 22.2027C45.9126 22.2027 50.7059 17.4017 50.7059 11.4794C50.7059 5.55702 45.9126 0.756012 39.9998 0.756012C34.087 0.756012 29.2937 5.55702 29.2937 11.4794C29.2937 17.4017 34.087 22.2027 39.9998 22.2027Z" fill="#579D45"/>
<path d="M64.0414 21.9205C68.4501 21.9205 72.024 18.3408 72.024 13.925C72.024 9.50926 68.4501 5.92957 64.0414 5.92957C59.6328 5.92957 56.0588 9.50926 56.0588 13.925C56.0588 18.3408 59.6328 21.9205 64.0414 21.9205Z" fill="#579D45"/>
<path d="M79.9132 40.8275C78.3166 30.7626 73.0575 24.7425 64.0419 24.7425C60.5671 24.7425 57.7497 25.589 55.4019 27.2822C55.6836 27.5644 55.9653 27.8466 56.341 28.1288C60.1914 32.1736 62.821 38.0056 64.0419 45.4367C64.0419 45.7188 64.1358 46.001 64.1358 46.1892C72.8697 46.2832 80.5705 44.7782 79.9132 40.8275Z" fill="#579D45"/>
<path d="M15.9582 21.9205C20.3669 21.9205 23.9408 18.3408 23.9408 13.925C23.9408 9.50926 20.3669 5.92957 15.9582 5.92957C11.5495 5.92957 7.97559 9.50926 7.97559 13.925C7.97559 18.3408 11.5495 21.9205 15.9582 21.9205Z" fill="#579D45"/>
<path d="M23.753 28.1288C24.0347 27.8466 24.3165 27.5644 24.5982 27.2822C22.2504 25.589 19.3391 24.7425 15.9582 24.7425C7.03646 24.7425 1.77733 30.6685 0.0868973 40.8275C-0.570494 44.7782 7.22429 46.2832 15.9582 46.2832C15.9582 46.001 15.9582 45.7188 16.0521 45.5307C17.1791 38.0996 19.8086 32.2676 23.753 28.1288Z" fill="#579D45"/>
<path d="M40.0001 53.244C28.261 53.244 17.9306 51.1746 18.7758 46.0011C21.0297 32.4558 28.0732 24.5544 40.0001 24.5544C51.9271 24.5544 58.9706 32.5498 61.2245 46.0011C62.0697 51.1746 51.7393 53.244 40.0001 53.244Z" fill="#579D45"/>
</g>
<defs>
<clipPath id="clip0_137_551">
<rect width="80" height="54" fill="white"/>
</clipPath>
</defs>
</svg>
