<svg width="44" height="59" viewBox="0 0 44 59" fill="none" xmlns="http://www.w3.org/2000/svg">
<path d="M38.5 19.6704C41.525 19.6704 44 22.1707 44 25.289V53.3815C44 56.4717 41.525 59 38.5 59H5.5C2.4475 59 0 56.4717 0 53.3815V25.289C0 22.1707 2.4475 19.6704 5.5 19.6704H8.25V14.0519C8.25 6.29838 14.41 3.05176e-05 22 3.05176e-05C29.59 3.05176e-05 35.75 6.29838 35.75 14.0519V19.6704H38.5ZM22 5.62416C17.435 5.62416 13.75 9.38856 13.75 14.0519V19.6704H30.25V14.0519C30.25 9.38856 26.565 5.62416 22 5.62416ZM19.25 50.5723L36.4375 33.0425L32.56 29.0814L19.25 42.6502L12.1275 35.4023L8.25 39.3352L19.25 50.5723Z" fill="#579D45"/>
</svg>
